<?xml version="1.0" standalone="no"?><!DOCTYPE svg PUBLIC "-//W3C//DTD SVG 1.1//EN" "http://www.w3.org/Graphics/SVG/1.1/DTD/svg11.dtd"><svg width="434" height="600" version="1.1" xmlns="http://www.w3.org/2000/svg" xmlns:xlink="http://www.w3.org/1999/xlink">
	<path id="JARDIM AEROPORTO" stroke-width="1" stroke="white" fill="steelblue" d="M11.025943084328901,444.41848166979617L54.8209906934062,382.7753896449867L45.15137576046982,372.91865358219366L46.456040714343544,372.1998176799825L52.104639905213844,369.0888126978898L55.31217323173769,367.4360537154571L58.32484194924473,365.7552405832903L61.44453154731309,364.0046024389594L64.41389701835578,362.3219209898525L67.57317815598799,360.60744480221183L70.691011900577,358.93848115371657L73.5737708787492,357.26515436650516L76.61613325099461,362.9285340840361L87.14438969927141,382.627631869982L87.42091185881873,383.1450958412097L126.24783986408147,361.5750326912457L130.95985169595224,358.85369258945866L131.5865115339402,359.94285176431003L135.2369752099039,366.2907814552309L139.01734862523153,372.86441357285366L143.73616525297984,381.069006017693L147.41322949467576,387.4631181341538L153.32721572453738,397.7469702957169L155.70951289721415,396.7382221988082L157.0370667098905,394.4152350459335L162.41966024402063,386.33093031091266L167.25787010841304,394.2157300646795L177.00790535617853,413.53660538216354L178.40845606999937,415.65386705708806L178.35772940990864,415.8371636364536L177.68591047206428,419.7686910655466L182.85198777390178,428.96846150693455L185.83867454357096,434.5434520581912L189.78421891320613,441.688957466009L191.2491058789601,444.98396359878825L192.08423991766176,445.5188958906074L191.86524921419914,446.7945040690611L192.30137476773234,447.35624568167987L193.95741463566083,450.2796730216796L196.39167570410063,453.65823354285385L202.76282049296424,455.78238316762145L204.18192974099657,455.73499971287674L207.01643653027713,453.6195786479875L207.35976941281115,454.40763983363286L205.68331515730824,461.55631241844094L204.09037430566968,467.2915982979903L203.32699993244023,470.0398511326275L202.69662838766817,472.30865804693167L201.36907457499183,475.45843090777635L199.84294444642728,479.0783048147059L194.73192412938806,492.08706983865704L194.00195511773927,493.6800475485361L190.23395405849442,499.0862028177071L189.35366091990727,500.1966137924246L188.35026283780462,501.4622708503084L186.45791096778703,503.60141960121837L184.51297658425756,505.8004237976129L182.64908113339334,507.9077784362307L165.02527844480937,529.2251924004377L146.27744720201008,548.9416513180186L138.63318696740316,556.5282504567658L130.23483162678895,547.4334368253185L27.103819874522742,444.4128704936156Z" />
	<path id="MARIO ANDREAZZA" stroke-width="1" stroke="white" fill="steelblue" d="M162.41966024402063,386.33093031091266L164.47037827246822,383.8620641493253L168.85761575595825,379.0303246886251L172.43508253074833,374.83575802319683L174.89099522246397,372.91117220156593L176.9547042248305,372.12749768602225L180.7975580386119,371.716021892913L185.38399045576807,371.4641488609559L187.99517621693667,371.93111150457116L191.51263706447207,372.3962038798636L193.17238863921375,372.86067288258346L195.62768271312234,373.1923474382056L196.15907540891203,373.8563201136931L199.27814638911514,374.3868749166577L199.80892046706867,375.5153173051076L201.13647427974502,376.5109654626649L203.45938414303237,377.307110169364L204.65393512733863,377.5726996041194L205.84910472945194,376.84264044267184L207.24285064739524,377.97108380262216L208.10520386963617,377.9043747076066L208.54380389445578,377.75848753326136L235.5204891989415,402.315020069982L234.04694158394705,401.78196625243436L231.1233538305678,400.1572437697905L228.9495308586338,398.9633289515259L223.69004226804827,397.4358668581772L223.1475144517608,397.9022103002717L219.49890662918915,411.25038849042903L218.91060109520913,413.2454508519586L217.6622303617769,417.47872842583456L216.56047204844072,421.2132450846766L216.327871753223,422.0037911419495L215.68265338113997,424.1908865818332L215.0498073650815,426.3355884152479L214.68853456608485,427.5606877160535L212.71019482100382,434.26850538849976L212.47697590797907,435.06092545393767L211.88372143157176,437.0722145089967L210.80670783048845,440.7232127768075L209.3913102892693,445.10491564663243L209.14262593106832,446.053828282973L208.7139237911906,447.5744583246924L208.57102307790774,448.0813351857432L207.01643653027713,453.6195786479875L204.18192974099657,455.73499971287674L202.76282049296424,455.78238316762145L196.39167570410063,453.65823354285385L193.95741463566083,450.2796730216796L192.30137476773234,447.35624568167987L191.86524921419914,446.7945040690611L192.08423991766176,445.5188958906074L191.2491058789601,444.98396359878825L189.78421891320613,441.688957466009L185.83867454357096,434.5434520581912L182.85198777390178,428.96846150693455L177.68591047206428,419.7686910655466L178.35772940990864,415.8371636364536L178.40845606999937,415.65386705708806L177.00790535617853,413.53660538216354L167.25787010841304,394.2157300646795Z" />
	<path id="RIO DO MEIO" stroke-width="1" stroke="white" fill="steelblue" d="M130.95985169595224,358.85369258945866L161.4904962986766,340.8006436704309L164.34479885772453,339.17470903320645L166.2031267483835,340.49640429666033L170.20805842749542,343.902889626821L170.9392646747292,344.52446141866676L178.03357367930585,350.42908846919454L206.2332663872803,375.76469689863734L208.54380389445578,377.75848753326136L208.10520386963617,377.9043747076066L207.24285064739524,377.97108380262216L205.84910472945194,376.84264044267184L204.65393512733863,377.5726996041194L203.45938414303237,377.307110169364L201.13647427974502,376.5109654626649L199.80892046706867,375.5153173051076L199.27814638911514,374.3868749166577L196.15907540891203,373.8563201136931L195.62768271312234,373.1923474382056L193.17238863921375,372.86067288258346L191.51263706447207,372.3962038798636L187.99517621693667,371.93111150457116L185.38399045576807,371.4641488609559L180.7975580386119,371.716021892913L176.9547042248305,372.12749768602225L174.89099522246397,372.91117220156593L172.43508253074833,374.83575802319683L168.85761575595825,379.0303246886251L164.47037827246822,383.8620641493253L162.41966024402063,386.33093031091266L157.0370667098905,394.4152350459335L155.70951289721415,396.7382221988082L153.32721572453738,397.7469702957169L147.41322949467576,387.4631181341538L143.73616525297984,381.069006017693L139.01734862523153,372.86441357285366L135.2369752099039,366.2907814552309L131.5865115339402,359.94285176431003Z" />
	<path id="ALTO DA BOA VISTA" stroke-width="1" stroke="white" fill="steelblue" d="M73.5737708787492,357.26515436650516L74.75966121375677,356.59993866210425L95.50624658935703,344.9608709821914L91.37697273117374,340.5082496814939L88.59999739789055,337.513862645108L90.8035140245338,337.36423689185176L92.29747602718999,336.45588404950104L93.41964872815879,336.5225921757519L94.20838643136085,333.20963160711835L93.85701151727699,330.0332080249282L94.67049393279012,328.7507942453376L94.35376161587192,327.2470603962429L93.20560696709435,325.4110348589966L92.84742725713295,322.6872354808729L95.64543559579761,317.8518589599553L96.96618461265462,313.9292000602509L97.27611213363707,307.49410601093405L97.32127123352257,306.55583784138435L97.55201567534823,306.00160516039614L98.02835138631053,304.8563575427179L104.87645050397259,308.21292562110466L114.26150124592823,313.545787249539L136.73464891937329,324.8555516437409L149.95884176829713,331.4259711390696L157.7670357215393,335.49640939818346L159.05066766997334,336.1965328449369L164.34479885772453,339.17470903320645L161.4904962986766,340.8006436704309L130.95985169595224,358.85369258945866L126.24783986408147,361.5750326912457L87.42091185881873,383.1450958412097L87.14438969927141,382.627631869982L76.61613325099461,362.9285340840361Z" />
	<path id="COMERCIAL NORTE" stroke-width="1" stroke="white" fill="steelblue" d="M138.63318696740316,556.5282504567658L146.27744720201008,548.9416513180186L165.02527844480937,529.2251924004377L182.64908113339334,507.9077784362307L184.51297658425756,505.8004237976129L186.45791096778703,503.60141960121837L188.35026283780462,501.4622708503084L189.35366091990727,500.1966137924246L190.23395405849442,499.0862028177071L194.00195511773927,493.6800475485361L194.73192412938806,492.08706983865704L199.84294444642728,479.0783048147059L201.36907457499183,475.45843090777635L202.69662838766817,472.30865804693167L203.32699993244023,470.0398511326275L204.09037430566968,467.2915982979903L205.68331515730824,461.55631241844094L207.35976941281115,454.40763983363286L207.01643653027713,453.6195786479875L208.57102307790774,448.0813351857432L208.7139237911906,447.5744583246924L209.14262593106832,446.053828282973L209.3913102892693,445.10491564663243L210.80670783048845,440.7232127768075L211.88372143157176,437.0722145089967L212.47697590797907,435.06092545393767L212.71019482100382,434.26850538849976L214.68853456608485,427.5606877160535L215.0498073650815,426.3355884152479L215.68265338113997,424.1908865818332L216.327871753223,422.0037911419495L216.56047204844072,421.2132450846766L217.6622303617769,417.47872842583456L218.91060109520913,413.2454508519586L219.49890662918915,411.25038849042903L223.1475144517608,397.9022103002717L223.69004226804827,397.4358668581772L228.9495308586338,398.9633289515259L231.1233538305678,400.1572437697905L234.04694158394705,401.78196625243436L235.5204891989415,402.315020069982L254.30296303905197,418.9070713646579L277.46648818452377,439.81420354929287L287.3557124387298,447.64553330350464L297.69590907386737,456.26369935806724L302.67454518037266,461.2738815283519L302.42709805775667,463.20039742745575L302.2780111664033,464.363165744915L301.47442663580296,465.71172820067295L300.24028411190375,467.7828919403619L296.3578387584712,471.85477182541945L296.3627877009567,472.74945146591926L296.8106669928238,474.4303277044528L290.6943927402608,479.7080112176991L287.2913761868549,484.92834501063044L285.6353363189555,490.8669305678268L285.17075434626895,496.8267266869152L285.66193688462954,502.5845288111159L285.7881349171221,508.2145295966111L284.9802200618724,514.277236149399L283.97929645099794,520.175980218206L282.0498275126447,525.0871413375717L277.2710049576708,531.4354391077213L268.0121522482077,541.2914769372001L265.64284604942077,544.769279819935L264.84482907905476,546.8754163704798L264.6703788576706,548.8780556514903L265.2512609779078,553.940150462855L264.0684637319646,556.0194838058524L258.3536724357982,559.4792235262503L256.76444329094375,561.6115575483927L255.35213883878896,563.7526220336222L253.13377538480563,565.9884587135966L250.73106382446713,568.1569601082956L247.90521768454346,569.378379535352L244.29125245910836,571.2282791776597L240.97298654521,573.8400876335436L236.95753836337826,576.9145303140394L233.39863012282876,580.9628737248131L230.55608130202745,583.5248115712748L226.16884381856653,584.910216743192L219.96658169091097,584.9999999999491L212.5202791544143,584.4687824385837L208.81661434707348,581.956723274554L206.2394525653217,578.8473594990937L201.8274703695497,569.6433634007408L194.1782611925737,562.5019009996904L188.30448512014118,560.5372849740306L181.13532336096978,561.7468548195393L174.28722424333682,564.2938115648722L167.8177192232688,566.0165157940719L162.34233301819768,570.4601373531623L154.3015387696796,569.4394816950298L149.12308911173022,567.3258465258987Z" />
	<path id="BARALHO" stroke-width="1" stroke="white" fill="steelblue" d="M337.05732286398415,268.4162767998132L338.6613988361205,267.28538302397646L343.6932360739447,266.07219758518477L345.25833912432427,265.81971044394595L344.41083272951073,256.18282283769076L341.7878932300373,212.0523020854307L344.93542062936467,207.18594201661472L348.5196922000323,193.3805112724658L366.7713919621601,176.78789917306858L385.53716312145116,161.8324373109208L390.36238201189553,179.2279098190338L401.695460226445,191.98469833924173L418.66971421818016,205.58377301196015L417.6675533716625,220.00956047938234L409.0792823644879,232.25844521250838L403.39789642981486,243.16952257680532L400.36790641373955,255.22898594169237L400.85785171645693,261.8696922928357L400.5757619967044,271.1948859535187L400.44090331488405,276.205366587601L396.33266246216954,280.7083853548902L389.7753137135587,280.4864449032757L375.1833568945294,272.2696728973897L363.86636274293414,271.14750556390936L358.96072353763157,272.1468578955828L356.31427656157757,275.3924175340435L354.64895742657245,280.8617487106676L346.34153890344896,278.25145564247214L344.06316952221096,277.43414201431733L342.5104388280306,276.53765334550553L340.97441081449506,275.2371841904678L339.5849952212011,273.7428299043313L339.1575303169084,273.1387294572269L337.81265520566376,270.65125837247615Z" />
	<path id="BRASILIA" stroke-width="1" stroke="white" fill="steelblue" d="M136.73464891937329,324.8555516437409L137.67556660302216,323.47650736114156L139.285828753229,321.11617361958633L141.4206788033771,317.9883915266255L144.08568431367166,314.0825651989071L144.80822991157766,313.0239718483863L146.36034198806738,310.7496807469579L148.69500558965956,307.328272544597L150.92574139978387,304.0596096069203L153.1038946963672,300.86700919158466L157.5975344425533,294.28232106473297L167.5312991788378,303.0378025245882L174.5872538794647,305.6867711207087L174.35898390886723,306.24474434358854L171.02896425663494,311.83695126693055L167.81462613423355,318.19350210703124L164.62688857747708,324.4983217543995L162.08808109970414,330.5344530423681L160.26315857068403,334.10738493812823L159.79733936235425,334.6740918737196L159.05066766997334,336.1965328449369L157.7670357215393,335.49640939818346L149.95884176829713,331.4259711390696Z" />
	<path id="JARDIM SAO VICENTE" stroke-width="1" stroke="white" fill="steelblue" d="M206.2382153297076,333.330578914487L207.09005204919958,331.5132526459565L211.1389055925829,322.6859886060338L211.47172197242617,322.0775137511664L219.7067622121831,325.32063634856604L222.89697424013866,326.19157935740077L225.49764349852921,326.7857160075582L231.05963619649992,328.05316637859505L242.79543460306013,331.04567317567125L249.945419210213,332.05439804859634L248.6345680783561,341.0038855651728L247.44001709402073,342.53069400401L245.31630216445774,343.326829230522L242.74903826758964,343.9215928884223L240.6915154432645,343.12545749606215L238.63399261896848,342.8598712673411L235.44811091563315,342.8598712673411L231.7314551343734,342.06311272941093L226.28947429085383,342.06311272941093L223.89975370446336,341.73144179165683L222.04142581380438,342.06311272941093L219.91771088418318,341.3997708924944L217.39560608717147,340.4702197619117L216.20105510289432,339.939671264372L214.5419221459597,338.7445347634275L209.49771255199448,335.891047081328L207.17480268867803,334.0325721497793Z" />
	<path id="SESI" stroke-width="1" stroke="white" fill="steelblue" d="M239.87184684970998,277.29698795778677L241.72584441569052,275.0501560768098L244.496633570845,268.4162767998132L245.0682364240347,262.3958623250728L243.92255624648533,256.9907790455036L242.47251610807143,249.97166711086174L242.94761458344874,245.8782840887725L244.1483517458255,243.13398763277655L247.0762698238541,241.05238878254022L252.9098357388284,240.8198532757524L262.04249041576986,244.84839333374111L267.3749759075581,248.55774736645253L270.135867177858,253.91044722687366L277.30441031919327,262.7374988432057L281.884037940501,267.6494634409755L293.1670081127086,270.4367998138041L302.8570374332485,267.98112577907887L307.1737524868222,264.2094040901138L307.90681458747713,267.664425650888L309.43541918724077,273.9005568739158L306.15427034176537,274.6505393817788L302.40173472769675,275.50837497698376L303.9532281863503,281.117354321912L305.2059292444319,285.64594142923306L306.6646300320572,289.8540925430643L307.329644174024,290.58288260237896L307.65194405117654,291.98934195911716L307.48368000783375,293.6283417902014L307.20468337711645,295.95124692669924L306.68690027314005,297.26918159834895L306.5427623241849,298.5590624308097L306.556990533747,299.98983957911696L307.4298602586787,301.2790982068909L308.92011055446346,303.4099921272864L310.46665507066064,306.0246722101947L314.3305418898526,318.47965944602765L312.10042469753535,319.3225457177905L308.768549191911,318.9341446904L295.30928157651215,314.98093595317914L291.16392365534557,314.988417181994L288.00464251771336,317.05261365498154L285.2833427870355,321.20407824853464L282.16117871776805,325.17599873789004L273.6489977007441,330.3231071847622L270.24412529397523,331.2327049546002L267.9243085196649,332.28756441724545L265.79440741200233,334.5038927492278L264.610372930445,333.9527718443351L249.945419210213,332.05439804859634L246.20649318789947,299.65755009475106L244.41930634505115,292.80104887097696L243.83347528229933,289.3135785642953L243.72892887305352,288.7138388367457L243.32187835636432,286.3641321142495L242.97545238473685,285.1384699950868L242.19413809516118,282.44712729763705L241.50004891635035,280.5737248541045Z" />
	<path id="SAO BENTO" stroke-width="1" stroke="white" fill="steelblue" d="M259.7882471290359,88.56489273741317L260.11364009519457,85.0839049235583L261.63667713469476,80.34181388077559L266.66170957669965,73.69778783422225L269.67128520514234,68.1266173983895L272.3987711138907,64.81833097078925L274.4550567026017,62.001895669236546L277.1843984647712,59.00717643406824L280.5131808813894,57.168205927926465L283.60626991369645,55.359782181425544L285.49862178371404,53.99832224225247L286.88494428803097,51.94179583751975L287.82338750042254,49.92953074674733L288.3151886565611,47.91789044269535L288.4048882384959,45.41378360896488L287.2425053801271,41.79258841480623L285.39160090321093,38.50864395501412L281.37924581041443,33.84891523126862L280.3838897598034,31.260665161782526L280.43709089118056,27.646968276196276L281.1800508767192,24.889166429376928L284.830514552712,18.98209343574854L287.41881145499065,16.792190711996227L290.8038880920212,15.398333769429883L294.8527416353172,14.999999999949068L299.2331743229588,15.066077272385883L303.94518615482957,16.725490028933564L305.93651687382953,17.920492220218875L308.06023180350894,20.177096564686508L309.6531726551184,23.5620064020477L314.89657718277886,43.539289331500186L319.87397605364094,60.131754232126696L322.06450170636526,64.91059140366997L327.17490340559743,71.48103795864154L334.8074099018413,75.26435029391723L343.1705040275119,77.78656128621515L351.4667874300794,80.04321264295868L363.6121108245279,81.7687417275447L378.2139655284118,82.23316356940632L390.55848385655554,84.82145955917076L398.65619094323483,88.80364975677367L407.2840534900897,93.3836740223851L422.9740569155838,101.85427578945382L418.54042309659417,108.34438948011666L403.5766769759357,134.7563300585607L399.75733063873486,141.73526217066683L388.12607864147867,159.92108628357528L385.53716312145116,161.8324373109208L366.7713919621601,176.78789917306858L348.5196922000323,193.3805112724658L344.93542062936467,207.18594201661472L341.7878932300373,212.0523020854307L344.41083272951073,256.18282283769076L345.25833912432427,265.81971044394595L343.6932360739447,266.07219758518477L338.6613988361205,267.28538302397646L337.05732286398415,268.4162767998132L337.81265520566376,270.65125837247615L339.1575303169084,273.1387294572269L339.5849952212011,273.7428299043313L340.97441081449506,275.2371841904678L342.5104388280306,276.53765334550553L344.06316952221096,277.43414201431733L346.34153890344896,278.25145564247214L354.64895742657245,280.8617487106676L351.77362186205573,289.81731015836704L344.6718894437945,303.67557468749874L321.5021781202522,313.1399308181353L317.5071443260531,316.1143423459944L314.3305418898526,318.47965944602765L310.46665507066064,306.0246722101947L308.92011055446346,303.4099921272864L307.4298602586787,301.2790982068909L306.556990533747,299.98983957911696L306.5427623241849,298.5590624308097L306.68690027314005,297.26918159834895L307.20468337711645,295.95124692669924L307.48368000783375,293.6283417902014L307.65194405117654,291.98934195911716L307.329644174024,290.58288260237896L306.6646300320572,289.8540925430643L305.2059292444319,285.64594142923306L303.9532281863503,281.117354321912L302.40173472769675,275.50837497698376L306.15427034176537,274.6505393817788L309.43541918724077,273.9005568739158L307.90681458747713,267.664425650888L307.1737524868222,264.2094040901138L302.8570374332485,267.98112577907887L293.1670081127086,270.4367998138041L281.884037940501,267.6494634409755L277.30441031919327,262.7374988432057L270.135867177858,253.91044722687366L267.3749759075581,248.55774736645253L274.4408284930396,245.55909272556892L275.17945815398707,242.08601869018457L277.5085541953158,237.39416482273373L280.13025645914604,232.85941993715824L281.5246209949546,226.9731148433566L280.93569684316753,219.8873711359338L280.16428043850465,212.04980843217345L279.03097261706716,198.6632859871097L284.9338237263728,192.7346593795737L288.1079516914033,189.60016017647285L289.2542504868179,186.17702663954697L288.27869020597427,181.5045899961624L288.10609583798214,178.23918783015688L285.88958823736175,175.27925796352065L281.31676541196066,172.29252475449903L278.3164690505946,168.92053101548663L276.8565310273261,165.72808136472304L276.8961225669191,161.04944404191338L279.46462369937217,156.17070258342574L283.5264682166744,153.82796206366038L287.7083245884278,152.44775340405613L291.5839651459246,152.44775340405613L294.7104595398705,152.98512453764124L298.12151812473894,155.1888459590773L301.9377713728463,157.3919456731528L305.6216404103907,158.10262336139567L308.47532435160247,156.72178924248146L311.1966240822803,154.96940884195647L312.3979798624641,152.07558343205164L311.95319365960313,148.9766624759941L311.90679732410354,145.59160478835838L312.40478465831256,142.9833052372196L314.4357069169637,139.43243088528106L312.49757732928265,137.99861699639587L310.40046296536457,134.5543496054088L306.96218519701506,132.54950735976308L303.4113189878699,130.1207575612716L300.8162172897428,127.757466289484L294.2390727713064,124.79758854025567L289.58644824882504,122.9660566184466L284.65420847787755,119.2980091375648L280.4562680431991,115.3718819347996L277.95395901601296,112.49804500908795L276.6499126799754,109.01702817099431L275.7504423893697,104.52737049685675L273.7170456594322,103.84475862194085L270.1760773352289,105.80594349579769L266.84667630083277,107.64993227598461L268.6518030601146,103.3292153317816L269.8265582746244,99.20424895545875L270.12906238192227,97.15704100392031L269.57106912051677,95.29186377590668L266.37652676791186,93.35811513526278L262.88566648599226,93.71656296349101L260.8566000807914,92.0365339638156Z" />
	<path id="TAMBAY" stroke-width="1" stroke="white" fill="steelblue" d="M98.02835138631053,304.8563575427179L98.88637428390211,302.793416748209L101.91388982874923,295.51796200890385L101.27052731002914,294.0179862398654L101.69118741844431,292.3528020916201L104.00172492559068,287.5904181887163L106.0289354773704,285.62910883726727L107.3131860436406,285.0418384668519L108.42174915282521,285.36041080778523L116.2831442374736,283.5749099262903L121.38364805179299,283.94959071017365L125.68118595337728,285.7749913046573L131.26297442114446,289.94324307072384L134.97653711333987,291.46628363341733L140.47543079504976,293.2150070161151L145.02845785071258,293.52360537126515L147.04577051760862,294.8477732367828L149.24928714428097,294.6850576609286L152.48713274335023,290.2468536297747L157.5975344425533,294.28232106473297L153.1038946963672,300.86700919158466L150.92574139978387,304.0596096069203L148.69500558965956,307.328272544597L146.36034198806738,310.7496807469579L144.80822991157766,313.0239718483863L144.08568431367166,314.0825651989071L141.4206788033771,317.9883915266255L139.285828753229,321.11617361958633L137.67556660302216,323.47650736114156L136.73464891937329,324.8555516437409L114.26150124592823,313.545787249539L104.87645050397259,308.21292562110466Z" />
	<path id="CENTRO" stroke-width="1" stroke="white" fill="steelblue" d="M159.05066766997334,336.1965328449369L159.79733936235425,334.6740918737196L160.26315857068403,334.10738493812823L162.08808109970414,330.5344530423681L164.62688857747708,324.4983217543995L167.81462613423355,318.19350210703124L171.02896425663494,311.83695126693055L174.35898390886723,306.24474434358854L174.5872538794647,305.6867711207087L182.7455855111766,309.31391073449777L183.70568034684402,305.889387082796L183.8096081383119,304.85261694157816L183.38214323404827,297.8664293933398L183.34378893004032,297.2355162775202L183.0456151473627,292.3621535536149L182.8699276902771,289.4987373205877L182.81920103018638,288.6670815867401L182.73630624412908,287.3111216700345L182.62062471432728,284.5056894017689L181.98221113800537,273.67362953710835L181.62217557465192,272.398098742553L181.35864438908175,271.9828967591602L181.13594197874772,270.736044318699L181.7527039317938,268.834595393615L181.7527039317938,266.496750087681L181.75455978521495,265.6819335195323L181.34627203294076,263.81789342952106L183.82198049445287,263.69694906428776L196.05391038177186,258.6790092658557L201.4266060309892,257.02007993082225L208.54565974781872,256.12546793045476L215.44634137902176,257.23578432963404L221.90656713198405,259.4882130260812L224.52641354236403,264.24680957000965L225.54094674499356,270.0646145046703L226.37546216594637,273.8326033563353L229.09738051440218,276.7845305864248L232.55545405257726,278.99894558011147L236.4403738771798,279.63234838259086L238.55233506846707,278.882987995712L239.87184684970998,277.29698795778677L241.50004891635035,280.5737248541045L242.19413809516118,282.44712729763705L242.97545238473685,285.1384699950868L243.32187835636432,286.3641321142495L243.72892887305352,288.7138388367457L243.83347528229933,289.3135785642953L244.41930634505115,292.80104887097696L246.20649318789947,299.65755009475106L249.945419210213,332.05439804859634L242.79543460306013,331.04567317567125L231.05963619649992,328.05316637859505L225.49764349852921,326.7857160075582L222.89697424013866,326.19157935740077L219.7067622121831,325.32063634856604L211.47172197242617,322.0775137511664L198.59333647735184,316.5663334695928L198.3755830094742,316.74401275857963L196.79872622078983,319.3219222811167L189.2107602066244,328.2514198569115L186.32861984625924,327.0768617144349L183.7304250590969,337.4484013770707L181.05799613514682,336.29067234199465L180.3855585795245,336.28630825920845L180.08181723652524,336.3910462461936L179.80282060583704,336.52945002052L179.12172240091604,337.0113695213804L178.180186099431,336.39229312698444L172.61015136996866,342.3748335706332L170.20805842749542,343.902889626821L166.2031267483835,340.49640429666033L164.34479885772453,339.17470903320645Z" />
	<path id="JARDIM SAO SEVERINO" stroke-width="1" stroke="white" fill="steelblue" d="M152.48713274335023,290.2468536297747L153.2208134617831,289.18826910977805L156.38442492409376,284.623517501539L158.2495576106012,280.15665139900375L159.45709956882638,275.6698426068324L160.20067817220115,275.10938164481195L161.90311437560013,275.86248160584364L163.90743606857723,276.1081119340015L165.4651157053013,276.0214555468192L166.8149397590023,275.2558870024877L167.51954544053297,274.51089175105153L168.1647638127033,273.12002665903856L167.07723370892927,270.78280127535254L166.91515584362787,268.6681407446231L165.90866467251908,266.9350180088004L165.26344630034873,265.28356498349603L165.14281582809053,264.215014912108L165.54615463787923,263.50992170557583L166.67389489908237,263.22813384135225L167.69399566194625,263.4544369248106L169.5393325786572,262.33975414168526L171.60304158108192,261.51995136526966L172.92997677595122,261.76558046147693L175.9166635455622,263.3796259860974L180.2247179498081,263.87275479276286L181.34627203294076,263.81789342952106L181.75455978521495,265.6819335195323L181.7527039317938,266.496750087681L181.7527039317938,268.834595393615L181.13594197874772,270.736044318699L181.35864438908175,271.9828967591602L181.62217557465192,272.398098742553L181.98221113800537,273.67362953710835L182.62062471432728,284.5056894017689L182.73630624412908,287.3111216700345L182.81920103018638,288.6670815867401L182.8699276902771,289.4987373205877L183.0456151473627,292.3621535536149L183.34378893004032,297.2355162775202L183.38214323404827,297.8664293933398L183.8096081383119,304.85261694157816L183.70568034684402,305.889387082796L182.7455855111766,309.31391073449777L174.5872538794647,305.6867711207087L167.5312991788378,303.0378025245882L157.5975344425533,294.28232106473297Z" />
	<path id="IMACULADA" stroke-width="1" stroke="white" fill="steelblue" d="M170.20805842749542,343.902889626821L172.61015136996866,342.3748335706332L178.180186099431,336.39229312698444L179.12172240091604,337.0113695213804L179.80282060583704,336.52945002052L180.08181723652524,336.3910462461936L180.3855585795245,336.28630825920845L181.05799613514682,336.29067234199465L183.7304250590969,337.4484013770707L186.32861984625924,327.0768617144349L189.2107602066244,328.2514198569115L196.79872622078983,319.3219222811167L198.3755830094742,316.74401275857963L198.59333647735184,316.5663334695928L211.47172197242617,322.0775137511664L211.1389055925829,322.6859886060338L207.09005204919958,331.5132526459565L206.2382153297076,333.330578914487L207.17480268867803,334.0325721497793L209.49771255199448,335.891047081328L214.5419221459597,338.7445347634275L216.20105510289432,339.939671264372L217.39560608717147,340.4702197619117L219.91771088418318,341.3997708924944L222.04142581380438,342.06311272941093L223.89975370446336,341.73144179165683L226.28947429085383,342.06311272941093L231.7314551343734,342.06311272941093L235.44811091563315,342.8598712673411L238.63399261896848,342.8598712673411L240.6915154432645,343.12545749606215L242.74903826758964,343.9215928884223L245.31630216445774,343.326829230522L247.44001709402073,342.53069400401L248.6345680783561,341.0038855651728L249.945419210213,332.05439804859634L264.610372930445,333.9527718443351L265.79440741200233,334.5038927492278L256.2200596212642,341.4932871195415L254.48112496730755,343.43780189524114L253.90395455388352,345.14728023034695L254.49411594122648,347.098655365342L255.34718989630346,348.0250914395001L255.6026790504111,348.3031470089918L255.54947791906307,349.6173651794379L254.45143131256918,350.5562709411024L252.43659311690135,350.4933031479668L251.13935157674132,350.94093560863985L250.02089058264391,352.15914463846275L249.41835683913087,354.26638564138557L247.55198691703845,357.99209129286464L244.56530014739837,359.1323726593473L244.9940022872761,360.9104394280512L246.73231832345482,362.01331520002714L249.04533030182938,362.55384293870884L250.99521362781525,363.29075635283516L251.9231403375452,364.12866828344704L252.62898325471906,366.8705871691491L249.20802678493783,372.14682458079915L250.0672869181144,376.4243060288063L250.4025777692441,379.65938553044543L251.3527747199696,380.5820914760916L252.0047978880175,381.15254834182997L253.68805693936883,379.8221059491334L254.50277659052517,382.8901045472812L254.85538874019403,384.2205483709622L254.01406852342188,385.7953856767126L253.87797260595835,386.77295733161736L253.66083775591687,387.7230974499762L254.56401975330664,388.2150008245517L256.4359572357498,389.86091387367924L256.72423313354375,390.86778918076016L255.81177186901914,391.6047099094649L255.9194113673293,392.6733076495875L256.7774342649209,392.99376235915406L257.2302624992735,393.9925338834946L257.04467715730425,395.48383383936016L254.7316651789297,396.771888693198L254.1161404614977,400.6229642025646L254.52257236029254,404.11368778031465L261.88659872853896,410.74601200823236L263.5209869732207,420.0342844556217L271.74241762119345,428.10496864306333L275.42443080531666,432.87382167024043L279.7349596807908,437.07159104662423L284.1469418765337,438.9681643574513L293.63282732100924,446.11991550857783L296.97831241835956,450.0689417545509L298.52114522771444,451.57336383463553L299.3525675596029,452.4524504572764L300.1190350218094,453.262956094557L300.04294503162964,454.7511697383452L300.57062602054793,455.86966848112934L301.6674353913986,456.7705777655792L303.0129291204794,458.63536737013055L302.67454518037266,461.2738815283519L297.69590907386737,456.26369935806724L287.3557124387298,447.64553330350464L277.46648818452377,439.81420354929287L254.30296303905197,418.9070713646579L235.5204891989415,402.315020069982L208.54380389445578,377.75848753326136L206.2332663872803,375.76469689863734L178.03357367930585,350.42908846919454L170.9392646747292,344.52446141866676Z" /></svg>