<?xml version="1.0" standalone="no"?><!DOCTYPE svg PUBLIC "-//W3C//DTD SVG 1.1//EN" "http://www.w3.org/Graphics/SVG/1.1/DTD/svg11.dtd"><svg width="171" height="600" version="1.1" xmlns="http://www.w3.org/2000/svg" xmlns:xlink="http://www.w3.org/1999/xlink">
	<path id="MORADA NOVA" stroke-width="1" stroke="white" fill="steelblue" d="M52.843764021323295,543.1428647457797L53.47029224628932,542.5422861048646L53.99322456581285,542.0074219059134L54.826531868980965,540.911491451403L55.27971236369922,540.1649281800674L55.5339557013649,539.6113485828537L55.8996368656226,539.7144948818568L56.48571728685056,540.0293406756682L61.29735499873641,542.6104958579635L62.249529316904955,543.1212372568662L63.87610885218601,543.9942393605888L66.9497292021988,545.6429209312882L70.40636548949988,547.4974814371963L70.69651657124632,547.6530333531337L71.68336043547606,548.0805932299372L72.3309380276769,559.2811987109708L73.33841852645855,575.477065692121L73.86423997482052,582.0660860294702L72.6706170324178,582.2507552762872L70.59746072540293,582.9403536572718L68.965102932445,583.013971834469L67.28239175118506,582.1800485805434L66.21960507179028,580.7334733443313L65.55551817195374,578.4825079579023L65.18405875004828,576.7959493380222L67.1858123014681,576.4632129177844L67.14495176507626,576.1046894897263L67.58286115023657,575.6114079456092L67.70090269987122,575.0174738436799L67.3319196740922,573.3063790089363L66.64595794159686,571.6397890836633L64.94921384882764,567.8715626584271L63.49350564766792,564.1728019254369L62.82570415356895,562.3589851781799L62.10961293464061,560.9032747459823L61.39352171574137,558.7554800036742L60.62996623737854,556.6555180312025L59.62785126356175,554.3883602456845L59.12638104398502,551.6915647897076L58.362825565593084,550.0690806424245L57.16961535587325,549.4722430617003L55.95246665008017,549.1860938206519Z" />
	<path id="PARQUE VERDE" stroke-width="1" stroke="white" fill="steelblue" d="M69.52187933260575,518.0235326432412L74.73304228944471,518.885293799598L75.5931772174954,518.9901026153311L75.37938168353867,520.9211644790666L75.3352192855964,522.6147443502923L76.2419930077449,532.9338852741748L76.45207394752651,534.6665714313531L76.42565905523952,536.6879019574699L76.13674617154174,539.9956517573373L76.18379769835155,540.4506601609792L76.21557811554521,540.7571878210292L76.92465287871892,543.5662644824952L77.60483635350829,548.6765985481507L77.81326636247104,551.665362138152L77.89581290067872,552.780430850813L77.58089785740594,554.933209881241L77.73814901270089,556.0886243541754L78.38531387218973,558.5504331103075L79.82121090427972,563.0652130951748L80.62067412678152,567.0659284569265L81.40321530893561,569.6475359986434L82.48994048440363,571.8660492729177L83.32696238177596,574.3748772812978L83.50402470622794,574.9068390803295L83.70791465556249,575.5174099592259L87.03206374903675,585.0000000000146L86.47611281421268,583.6382707277553L85.82358242972987,582.6383943838555L84.67577281603008,581.7607995208928L83.63981376157608,581.0890861892076L82.25881017744541,580.5438131874362L80.82084948194097,580.4015680821467L78.88183129954268,580.6078650804302L77.7208142396994,581.0462462757059L75.21387587444042,581.8572933439282L73.86423997482052,582.0660860294702L73.33841852645855,575.477065692121L72.3309380276769,559.2811987109708L71.68336043547606,548.0805932299372L71.43406989012146,545.2107865478611L70.92475774939521,542.2216171154214L70.33000994162285,533.9312401968309L70.32712081278441,530.0994536632024L69.6015367420041,519.2192679426189Z" />
	<path id="AMAZONIA PARK" stroke-width="1" stroke="white" fill="steelblue" d="M4.50162212055875,416.6337111735702L16.60211915578111,394.42719861874866L24.2273556223372,372.8264580872237L25.61702659301227,347.6669327632917L35.30799017808749,348.8908413784993L41.195622015424306,349.6344192651013L55.17405279481318,351.09412836637057L58.88740881587728,335.15674320075414L59.11771365746972,335.212469548369L59.65261522502988,335.3413887170427L59.921304206887726,335.4050165679291L72.83612284151604,338.45874001111224L80.39243294863263,340.2453139412428L82.07266773376614,340.7189891970156L76.16357379648252,354.12749890446867L74.5229613496922,358.49790638860577L71.62475239337073,365.06497274671347L69.41044150607195,369.891620674196L66.75368117395556,376.2682541222748L64.82745770498877,382.13545757440806L63.54303357057506,387.1172713021442L62.74398308072705,391.1999643860472L62.146346144145355,395.8715540422454L61.72783519545919,401.5308759144573L61.72535879933275,406.6761821090113L61.92470868906821,410.41789134800274L62.89875783989555,424.3887501876561L62.98749536843388,426.2706421507828L63.03743602405302,428.7834386660179L63.10058412575745,431.97413768122715L63.69822106239735,439.4576618508836L64.09444444574183,442.9648720154837L65.14938920401619,455.3227129869192L38.75141901924508,448.5902292280807L37.98414894664893,448.5486399527981L37.17519287223695,448.31324467126615L35.487941631348804,447.808351002157L33.91419188049622,446.92624302374315L32.62068762688432,445.98507875762516L33.45151853389689,444.7972910177705L35.73186665173853,440.5680905597619L36.41824111691676,437.37238660025105L36.41824111691676,433.47549814736703L34.62491757443058,430.7302135955688L30.860795432381565,426.5675861558557L26.80899860468344,425.46049263355235L21.495477940508863,425.3278244442881L14.720470817439491,423.0250554823724L7.8567261658317875,419.09159809772973Z" />
	<path id="AREIA DOURADA" stroke-width="1" stroke="white" fill="steelblue" d="M150.48517493330291,103.58646214170221L150.9759141029208,103.6076688876783L151.32921328642988,103.6317863636832L153.5026636373368,103.6218067183654L156.08265568886418,103.61016379897774L157.51029806709266,104.03637785993851L158.94536963381688,123.48971869415254L160.15013635886135,138.66980522768426L160.85879838932306,144.78079449678262L161.47872289124643,148.10201046189468L162.0986473931407,153.99139236759947L163.02853414599667,160.27915789012695L161.72801343663014,160.42303531063226L158.9532115549082,161.0264057652821L156.0430333505501,161.65888457557958L154.1564322198974,162.0688939604588L153.94428761670133,162.1117245604546L154.45071062861825,150.06555160733842L154.49487302653142,148.1835127655795L154.47299819393083,144.7071930554921L154.3202870982641,141.8866382272572L154.05242358177202,139.1280455906599L153.38792394922348,134.25706417968468L152.991700565879,127.80513253223035L152.99665335816098,125.42620645120405L152.94506177178118,122.14619568306807L152.65738708613208,117.36341099773927L152.28303853535908,113.324956862627L151.6168879721081,108.66236575072617Z" />
	<path id="CAMBOINHA" stroke-width="1" stroke="white" fill="steelblue" d="M134.54254927742295,225.72702116455548L137.4708877201483,218.9807840630092L141.5672596785007,210.23520401387213L145.5942925447598,201.16614032301732L146.9913927038433,197.81406144990615L148.37404721876374,193.79623183770673L150.73322728060884,186.94282010263123L151.68333793530473,184.0735511009043L152.3032624372281,181.2837108623753L152.72383704941603,178.8261264972316L153.21292528824415,174.87611713583829L153.63391263308586,170.20464576375525L153.89929975339328,165.2670533018245L153.94428761670133,162.1117245604546L154.1564322198974,162.0688939604588L156.0430333505501,161.65888457557958L158.9532115549082,161.0264057652821L161.72801343663014,160.42303531063226L163.02853414599667,160.27915789012695L164.1536434617301,166.04881714622388L166.18841562842135,176.46792960502717L166.49837787941215,187.93708517755294L165.7740320066514,191.8076961886327L163.95842089888174,196.9000481443909L161.12418550965958,203.9851179754187L158.99902488361113,212.22126351881525L155.64061897678766,231.5201625889349L152.12083458781126,230.40028973831795L150.31512906460557,229.9204038357202L148.69432778697228,229.4891719779189L147.326531648956,229.12572302283297L146.12135219119955,228.80510620950008L145.3284926917404,228.59468845940864L143.53929647619952,228.11896145662467L142.64903206162853,227.88192968940712L140.87799608451314,227.4111930026047L139.88908855681075,227.14837893046206L138.3739468480926,226.74542514540735L134.8500351322,225.80852673089612Z" />
	<path id="INTERMARES" stroke-width="1" stroke="white" fill="steelblue" d="M61.72535879933275,406.6761821090113L61.72783519545919,401.5308759144573L62.146346144145355,395.8715540422454L62.74398308072705,391.1999643860472L63.54303357057506,387.1172713021442L64.82745770498877,382.13545757440806L66.75368117395556,376.2682541222748L69.41044150607195,369.891620674196L71.62475239337073,365.06497274671347L74.5229613496922,358.49790638860577L76.16357379648252,354.12749890446867L82.07266773376614,340.7189891970156L84.70755323322373,335.272354580462L86.94580261659576,331.05670238124367L97.65332681965083,307.7849042948328L97.8481366498163,307.8934443746075L99.52052951382939,308.96886480507965L103.91324354431708,311.7942374980739L112.51541829050984,317.2237554157473L112.77626535121817,317.3888535879414L114.40779767881031,318.4185341947741L115.84988570123096,319.261492030917L120.28180933737895,322.017846124043L121.89187956502428,323.1423465706139L119.42703993426403,326.3162359807393L114.82176856789738,333.53444180038423L110.30523473009816,340.7522587539788L107.11687469200115,347.08429764033644L103.75145232945215,354.52382529517126L100.82889214434545,362.00704843009953L98.61499398972956,370.1993687548493L97.04908616002649,378.0107800754704L96.07503700919915,384.9630168525946L96.29708719698829,396.0495512727757L96.33670953533147,400.3040226853227L94.68165144437808,400.7918527062102L92.5267740645213,401.0542745332714L91.1342139650369,401.0563539456962L86.66184252517996,401.8976843876735L84.51398160113604,402.6504321536777L82.654208095395,403.3590966178417L80.94962208150537,403.7354707498089L79.35523569612997,404.0232618483933L78.35889897999004,404.88663540235575L78.11538669231231,406.12679982662667L78.24828661882202,407.3000077522811L77.78313687603804,408.36300711415606L76.85325012318208,409.29292409533446L75.67985108261928,410.53267547437645L74.66163953387877,412.2598446947122L73.17786550967139,414.562184886101L71.62805425489205,415.8243974860452L70.3663304184447,416.35589944800813L69.28125617376645,416.9976113238954L68.44010694947792,417.94999032869964L68.28491945765563,420.1417114888791L68.44010694947792,422.37793506385424L68.24694805007312,423.5935734076047L66.50067603436764,423.47213430482225L62.89875783989555,424.3887501876561L61.92470868906821,410.41789134800274Z" />
	<path id="JACARE" stroke-width="1" stroke="white" fill="steelblue" d="M25.61702659301227,347.6669327632917L25.812661888543516,344.12329959303315L28.469834953313693,300.5505761782588L29.221833916322794,292.3256986804481L43.06530110575841,292.65173219121425L43.99725152202882,287.25721541156963L45.28291385457851,279.8171152557479L47.585549537761835,269.9867121524803L48.73335915146163,265.48592707292846L60.68816154677188,268.5382924163132L84.6270703584596,274.6434534131222L78.45630389507278,285.1109737541956L71.19427219664794,297.86411724421487L67.69594990756013,304.0858121191159L65.87456054214272,307.7458132331012L63.444390457414556,315.4962554882877L58.88740881587728,335.15674320075414L55.17405279481318,351.09412836637057L41.195622015424306,349.6344192651013L35.30799017808749,348.8908413784993Z" />
	<path id="JARDIM AMERICA" stroke-width="1" stroke="white" fill="steelblue" d="M62.89875783989555,424.3887501876561L66.50067603436764,423.47213430482225L68.24694805007312,423.5935734076047L68.1276683023898,424.3463296607115L67.51022019662196,427.3373949873421L67.50774380046641,429.39437893054856L68.3934681553801,433.6451810660619L68.6171692739299,435.90595785227197L69.10213018590002,437.54206986281133L69.72535654928652,439.84693566231L69.81285587977618,440.31190170710397L70.27552922643372,441.3058813749376L70.895453728328,445.68979532237427L71.4712158323091,450.4946031104155L71.86950287915533,451.66783810137713L72.60003974224674,452.531233043479L73.11182827909943,453.5522521293133L73.55427772388794,454.7475313736322L73.99507623785757,456.22894669507514L76.01210089886445,460.6590590697524L76.56557543753297,462.29768752675955L76.78473649642547,463.6460219398141L77.09676241085981,466.7922778830434L76.87347402505111,468.38433110262486L77.16321237411466,469.40494271651187L77.5396245883021,470.97661911902105L77.60401088814251,472.70176315536446L78.24622295534937,474.80496037991907L78.42328527980135,476.0227113782021L78.24828661882202,476.97678322588763L77.38484982919181,477.7961042406605L77.05053634947399,479.18895076807166L76.87553768849466,481.27219190628966L76.80702406176715,482.64258234835506L77.58419971898547,484.8813740582045L77.60401088814251,485.80883265571174L77.63125124573708,487.2357888887418L77.64817328605568,488.1116768599786L78.17977299209451,492.93821769871283L78.18224938822095,493.10956947936575L78.24622295534937,497.47696553969945L77.78107321256539,501.1523069234463L76.95643329591257,504.10481270032324L76.21887997709564,509.4296490174929L76.0141645623371,515.1882912630936L75.72360074784956,517.8126673999868L75.5931772174954,518.9901026153311L74.73304228944471,518.885293799598L69.52187933260575,518.0235326432412L68.3592113420309,501.9271364967062L67.36452555668075,487.595127495264L66.44371892302297,474.97131976034507L65.8237944211287,465.89394122560407L65.14938920401619,455.3227129869192L64.09444444574183,442.9648720154837L63.69822106239735,439.4576618508836L63.10058412575745,431.97413768122715L63.03743602405302,428.7834386660179L62.98749536843388,426.2706421507828Z" />
	<path id="JARDIM BRASILIA" stroke-width="1" stroke="white" fill="steelblue" d="M131.18992162827635,103.61057961750339L131.36904761614278,103.58646214170221L132.7096033965936,103.69914897080525L134.35269223951036,103.90830572252162L136.9302078949113,103.87462441504249L149.3163159523683,103.53905882811887L150.48517493330291,103.58646214170221L151.6168879721081,108.66236575072617L152.28303853535908,113.324956862627L152.65738708613208,117.36341099773927L152.94506177178118,122.14619568306807L152.99665335816098,125.42620645120405L152.58144427096704,125.35510068237636L144.74984145892086,123.99743840260271L142.40923436818412,123.59201110634604L137.82253597289673,122.85226244214573L135.28629358659964,122.44309298159715L134.97963319721748,122.39111515994591L133.60564606878324,115.42693127414168L132.66502826596843,111.03544983239044L131.9274749471224,107.40451177413343Z" />
	<path id="JARDIM CAMBOINHA" stroke-width="1" stroke="white" fill="steelblue" d="M88.05027529777726,195.16600224790818L88.94425430652336,193.91141892965243L98.59765921669896,185.5863622570796L104.08824220532551,180.5381185254373L107.89652674534591,178.41278689475075L109.49091313072131,175.66744903335348L113.47625999516458,170.53065871147192L116.66420730060781,167.69675972857658L122.33226534634014,168.75921146680776L123.48378955427324,166.27960387324856L123.53538114065304,165.38764451258612L130.8308441870904,164.707343849248L131.22541663970333,164.34640202933588L133.01378738987842,164.1937918560834L135.12532783710049,164.01332098550847L138.03963336837478,163.76423794516813L141.04185096282163,163.50808580344165L143.71800973138306,163.27937856261997L146.55100692255655,163.03736474806647L150.04932921158615,162.73838208748202L153.7350321423728,162.42359788967588L153.94428761670133,162.1117245604546L153.89929975339328,165.2670533018245L153.63391263308586,170.20464576375525L153.21292528824415,174.87611713583829L152.72383704941603,178.8261264972316L152.3032624372281,181.2837108623753L151.68333793530473,184.0735511009043L150.73322728060884,186.94282010263123L148.37404721876374,193.79623183770673L146.9913927038433,197.81406144990615L145.5942925447598,201.16614032301732L141.5672596785007,210.23520401387213L137.4708877201483,218.9807840630092L137.20343693636823,218.5029802058416L136.59217982098926,218.2243653044061L134.17232805353706,217.10657935637573L130.09948185857502,215.22530714109234L126.04149404048803,213.3511060678029L124.33773349199328,212.56391720714237L122.77430205841665,211.8420158178851L121.35656526478124,211.1870651934296L120.80185252806405,210.9354810441764L118.69856673461618,209.93455071094286Z" />
	<path id="JARDIM MANGUINHOS" stroke-width="1" stroke="white" fill="steelblue" d="M123.53538114065304,165.38764451258612L123.74917667460977,161.674270321706L127.46913641874562,155.91793062176657L127.02627424127422,153.88078176827185L127.57273232418811,150.32710774625957L129.6830345733324,146.44160968312644L128.9747852755536,144.05018596259106L129.59470977747696,142.45632094512985L131.09994590163114,139.8877601148779L131.27742095876602,135.54820156611459L129.6830345733324,134.57392293711018L129.8600968978135,132.62578296968422L131.36698395269923,131.74007643733057L131.36739668538212,125.6511668246385L131.05743443442043,122.24141904135104L130.25590754850418,115.7674887666326L129.91870493991883,111.62924108072548L132.66502826596843,111.03544983239044L133.60564606878324,115.42693127414168L134.97963319721748,122.39111515994591L135.28629358659964,122.44309298159715L137.82253597289673,122.85226244214573L142.40923436818412,123.59201110634604L144.74984145892086,123.99743840260271L152.58144427096704,125.35510068237636L152.99665335816098,125.42620645120405L152.991700565879,127.80513253223035L153.38792394922348,134.25706417968468L154.05242358177202,139.1280455906599L154.3202870982641,141.8866382272572L154.47299819393083,144.7071930554921L154.49487302653142,148.1835127655795L154.45071062861825,150.06555160733842L153.94428761670133,162.1117245604546L153.7350321423728,162.42359788967588L150.04932921158615,162.73838208748202L146.55100692255655,163.03736474806647L143.71800973138306,163.27937856261997L141.04185096282163,163.50808580344165L138.03963336837478,163.76423794516813L135.12532783710049,164.01332098550847L133.01378738987842,164.1937918560834L131.22541663970333,164.34640202933588L130.8308441870904,164.707343849248Z" />
	<path id="PONTA DE CAMPINA" stroke-width="1" stroke="white" fill="steelblue" d="M97.65332681965083,307.7849042948328L98.02478624155628,306.9660714758247L102.5289380986651,297.01160396706837L107.60555019817548,285.4490659168223L114.16304719305481,270.86957088152485L114.41481413453585,270.8849574951382L128.57691096141934,272.59786261754925L133.75010251061758,273.08857133239144L144.4555630502582,274.2554605222467L146.8630328369327,274.541153029204L148.82805317887687,274.9079373576824L148.9469201939064,279.26361054219524L150.25610828978824,288.9451835436266L149.83553367765853,293.7961767870838L148.46278474733117,297.6973573004034L146.61621868773364,300.21040206950784L144.19430325683788,303.0241178318465L138.32029159826925,307.1536253310951L131.82594270509435,311.6150004557967L126.68948436540086,317.10564993091975L123.55106498295208,321.04472126626206L122.34960011934163,322.55264913935025L121.89187956502428,323.1423465706139L120.28180933737895,322.017846124043L115.84988570123096,319.261492030917L114.40779767881031,318.4185341947741L112.77626535121817,317.3888535879414L112.51541829050984,317.2237554157473L103.91324354431708,311.7942374980739L99.52052951382939,308.96886480507965L97.8481366498163,307.8934443746075Z" />
	<path id="PORTAL DO POCO" stroke-width="1" stroke="white" fill="steelblue" d="M58.88740881587728,335.15674320075414L63.444390457414556,315.4962554882877L65.87456054214272,307.7458132331012L67.69594990756013,304.0858121191159L71.19427219664794,297.86411724421487L78.45630389507278,285.1109737541956L84.6270703584596,274.6434534131222L85.10625301275286,274.7744478151217L87.29497447321774,275.34874401234265L87.71967641229276,275.4601932579062L89.92119258616003,276.03781650308883L98.95343479633448,278.40777862237155L98.3380503540975,280.7415641277221L97.92242853422067,282.3180769217288L107.11935108815669,285.0980821723024L107.60555019817548,285.4490659168223L102.5289380986651,297.01160396706837L98.02478624155628,306.9660714758247L97.65332681965083,307.7849042948328L86.94580261659576,331.05670238124367L84.70755323322373,335.272354580462L82.07266773376614,340.7189891970156L80.39243294863263,340.2453139412428L72.83612284151604,338.45874001111224L59.921304206887726,335.4050165679291L59.65261522502988,335.3413887170427L59.11771365746972,335.212469548369Z" />
	<path id="POCO" stroke-width="1" stroke="white" fill="steelblue" d="M114.16304719305481,270.86957088152485L122.2654026504024,252.91888235564693L125.55694586125901,245.7354931306727L131.11232788237976,233.66842401809117L134.54254927742295,225.72702116455548L134.8500351322,225.80852673089612L138.3739468480926,226.74542514540735L139.88908855681075,227.14837893046206L140.87799608451314,227.4111930026047L142.64903206162853,227.88192968940712L143.53929647619952,228.11896145662467L145.3284926917404,228.59468845940864L146.12135219119955,228.80510620950008L147.326531648956,229.12572302283297L148.69432778697228,229.4891719779189L150.31512906460557,229.9204038357202L152.12083458781126,230.40028973831795L155.64061897678766,231.5201625889349L153.89352149574552,235.54597152819042L151.07249355263775,244.01554236722586L150.58546897722408,250.30318410653854L149.7600035952055,263.4810995415064L148.82805317887687,274.9079373576824L146.8630328369327,274.541153029204L144.4555630502582,274.2554605222467L133.75010251061758,273.08857133239144L128.57691096141934,272.59786261754925L114.41481413453585,270.8849574951382Z" />
	<path id="RECANTO DO POCO" stroke-width="1" stroke="white" fill="steelblue" d="M48.73335915146163,265.48592707292846L49.799447692377726,261.3074380217804L52.63327034888789,253.33681221273946L57.94720374577446,241.91218105959342L67.60060865595005,225.97112202908102L75.1284402073943,213.83805718188523L83.89612076265621,200.99606199720438L88.05027529777726,195.16600224790818L118.69856673461618,209.93455071094286L120.80185252806405,210.9354810441764L121.35656526478124,211.1870651934296L122.77430205841665,211.8420158178851L124.33773349199328,212.56391720714237L126.04149404048803,213.3511060678029L130.09948185857502,215.22530714109234L134.17232805353706,217.10657935637573L136.59217982098926,218.2243653044061L137.20343693636823,218.5029802058416L137.4708877201483,218.9807840630092L134.54254927742295,225.72702116455548L131.11232788237976,233.66842401809117L125.55694586125901,245.7354931306727L122.2654026504024,252.91888235564693L114.16304719305481,270.86957088152485L107.60555019817548,285.4490659168223L107.11935108815669,285.0980821723024L97.92242853422067,282.3180769217288L98.3380503540975,280.7415641277221L98.95343479633448,278.40777862237155L89.92119258616003,276.03781650308883L87.71967641229276,275.4601932579062L87.29497447321774,275.34874401234265L85.10625301275286,274.7744478151217L84.6270703584596,274.6434534131222L60.68816154677188,268.5382924163132Z" />
	<path id="CAMALAU" stroke-width="1" stroke="white" fill="steelblue" d="M124.24074130962254,76.72684863345057L125.75423208758002,76.2020929443679L127.89177469434799,75.27275179784556L130.28768796569784,75.4627781169911L143.3548049632809,77.83457426091991L150.48517493330291,103.58646214170221L149.3163159523683,103.53905882811887L136.9302078949113,103.87462441504249L134.35269223951036,103.90830572252162L132.7096033965936,103.69914897080525L131.36904761614278,103.58646214170221L131.18992162827635,103.61057961750339L131.9274749471224,107.40451177413343L132.66502826596843,111.03544983239044L129.91870493991883,111.62924108072548L127.91323679426569,102.09367413650762L126.09762568649603,95.40691273485572L124.63655196031323,91.15602226662304L124.68071435819729,88.1891781671984L125.33530840618187,82.5074868314041Z" />
	<path id="CENTRO" stroke-width="1" stroke="white" fill="steelblue" d="M102.55741665433743,44.46919005105883L103.45923758420395,42.32196947477132L105.47089672021684,42.48621263822133L106.08091563754715,43.044639497511525L106.22826120821992,43.57479172724925L106.59146597632207,43.2392365344931L108.44009569939226,40.441698093571176L109.13348662032513,39.86996622212973L109.13637574913446,40.87455120746745L111.42043846120941,45.95195451791005L111.94378351344494,47.21226362127345L114.31204369448824,47.117459740897175L115.263392547291,47.10249070757345L117.36420194458333,47.069641995898564L118.55122116394341,47.14407135599686L119.1406034467218,47.290019438933086L120.63841038240935,47.70790503603712L121.50968909313087,48.002296137347L126.03777944631292,49.995674341291306L127.44726158611593,50.6069108699412L128.55833799034008,51.041845278563414L129.19972459218116,51.206089177059766L130.7751252737653,51.22646373756652L131.79292408982292,51.42438805093843L132.86520362109877,51.63270757046848L134.64201785594923,52.32960097548494L135.41135159198893,52.9491543909935L135.89589977124706,53.33959788627908L136.70857043986325,54.2685127571749L137.31570022835513,55.42279613254141L137.80767759602168,57.06232877410366L138.2232994158694,58.82119996962865L138.50395764579298,59.99211841211945L139.12924767268123,62.15765409114465L139.37441089111962,63.00798509967353L140.00506644303096,65.19223559767124L140.48135996842757,66.84300335243461L141.86525268145488,71.92421666140217L142.60032960411627,74.60495704659843L143.3548049632809,77.83457426091991L130.28768796569784,75.4627781169911L127.89177469434799,75.27275179784556L125.75423208758002,76.2020929443679L124.24074130962254,76.72684863345057L123.8511216492916,75.73305628343951L122.58485775327426,72.27017209233236L122.22908217358054,72.39366821653675L121.4481919221871,70.78655596640237L120.69536749378312,69.94536941076512L120.07420479378197,67.42721746493771L118.68081922890269,67.36235097827739L117.88837246215553,66.0995339737674L115.87217326654354,67.17773098972248L114.00125597816077,63.820477764777024Z" />
	<path id="FORMOSA" stroke-width="1" stroke="white" fill="steelblue" d="M143.3548049632809,77.83457426091991L156.65057587172487,79.93359962641989L157.0752778107999,98.14091009457479L157.51029806709266,104.03637785993851L156.08265568886418,103.61016379897774L153.5026636373368,103.6218067183654L151.32921328642988,103.6317863636832L150.9759141029208,103.6076688876783L150.48517493330291,103.58646214170221Z" />
	<path id="MONTE CASTELO" stroke-width="1" stroke="white" fill="steelblue" d="M138.2232994158694,58.82119996962865L142.75716802669922,57.82616933219833L145.00903758889763,57.31139814470225L145.5559084044944,58.776708409124694L155.30671822978184,57.62658113349244L155.5448649924947,59.22910862270146L156.498277508741,73.41614989630034L156.65057587172487,79.93359962641989L143.3548049632809,77.83457426091991L142.60032960411627,74.60495704659843L141.86525268145488,71.92421666140217L140.48135996842757,66.84300335243461L140.00506644303096,65.19223559767124L139.37441089111962,63.00798509967353L139.12924767268123,62.15765409114465L138.50395764579298,59.99211841211945Z" />
	<path id="PONTA DE MATOS" stroke-width="1" stroke="white" fill="steelblue" d="M114.19441487756558,44.049226119379455L118.35352220493951,37.70403951175467L136.60662546518142,29.901068363953527L137.86092011316214,29.854498449811217L140.9960376341478,28.251995117167098L143.0630029507447,27.35386201420988L144.91741093149176,26.195021441257268L146.6001221127808,28.453659319828148L148.76985786945443,29.737657866469817L149.47851989991614,33.19173457904981L150.05386927121435,35.671172496746294L151.07249355263775,36.55683530463648L151.1608183485223,37.973896634270204L152.20750845290604,40.978502497921L154.35908397121239,51.24434345410191L155.30671822978184,57.62658113349244L145.5559084044944,58.776708409124694L145.00903758889763,57.31139814470225L142.75716802669922,57.82616933219833L138.2232994158694,58.82119996962865L137.80767759602168,57.06232877410366L137.31570022835513,55.42279613254141L136.70857043986325,54.2685127571749L135.89589977124706,53.33959788627908L135.41135159198893,52.9491543909935L134.64201785594923,52.32960097548494L132.86520362109877,51.63270757046848L131.79292408982292,51.42438805093843L130.7751252737653,51.22646373756652L129.19972459218116,51.206089177059766L128.55833799034008,51.041845278563414L127.44726158611593,50.6069108699412L126.03777944631292,49.995674341291306L121.50968909313087,48.002296137347L120.63841038240935,47.70790503603712L119.1406034467218,47.290019438933086L118.55122116394341,47.14407135599686L117.36420194458333,47.069641995898564L115.263392547291,47.10249070757345L114.31204369448824,47.117459740897175Z" />
	<path id="SANTA CATARINA" stroke-width="1" stroke="white" fill="steelblue" d="M92.7979394425347,15.000000000014552L108.34103985357797,18.091472719246667L112.41471151387668,19.419955103861867L120.29914411038044,21.861537608507206L123.61792767886072,22.60831651906483L127.60368727601599,22.472349513485824L135.61813067019102,23.405407687369006L140.57793941814452,24.5122713941455L144.91741093149176,26.195021441257268L143.0630029507447,27.35386201420988L140.9960376341478,28.251995117167098L137.86092011316214,29.854498449811217L136.60662546518142,29.901068363953527L118.35352220493951,37.70403951175467L114.19441487756558,44.049226119379455L114.31204369448824,47.117459740897175L111.94378351344494,47.21226362127345L111.42043846120941,45.95195451791005L109.13637574913446,40.87455120746745L109.13348662032513,39.86996622212973L108.44009569939226,40.441698093571176L106.59146597632207,43.2392365344931L106.22826120821992,43.57479172724925L106.08091563754715,43.044639497511525L105.47089672021684,42.48621263822133L103.45923758420395,42.32196947477132L100.48632401082432,37.47368384654328L95.54343730316032,28.719357136258623L93.8165637239581,24.5122713941455L93.68366379744839,22.65280725381308L93.18838456826052,16.94926965223567Z" /></svg>