<?xml version="1.0" encoding="UTF-8" standalone="no"?>
<svg
   xmlns:dc="http://purl.org/dc/elements/1.1/"
   xmlns:cc="http://creativecommons.org/ns#"
   xmlns:rdf="http://www.w3.org/1999/02/22-rdf-syntax-ns#"
   xmlns:svg="http://www.w3.org/2000/svg"
   xmlns="http://www.w3.org/2000/svg"
   xmlns:sodipodi="http://sodipodi.sourceforge.net/DTD/sodipodi-0.dtd"
   xmlns:inkscape="http://www.inkscape.org/namespaces/inkscape"
   xml:space="preserve"
   width="474mm"
   height="279.4mm"
   style="shape-rendering:geometricPrecision; text-rendering:geometricPrecision; image-rendering:optimizeQuality; fill-rule:evenodd"
   viewBox="0 0 474000 279400"
   id="svg3336"
   version="1.1"
   inkscape:version="0.91 r13725"
   sodipodi:docname="paraibamicrorregioes.svg"><metadata
     id="metadata3727"><rdf:RDF><cc:Work
         rdf:about=""><dc:format>image/svg+xml</dc:format><dc:type
           rdf:resource="http://purl.org/dc/dcmitype/StillImage" /><dc:title></dc:title></cc:Work></rdf:RDF></metadata><sodipodi:namedview
     pagecolor="#ffffff"
     bordercolor="#666666"
     borderopacity="1"
     objecttolerance="10"
     gridtolerance="10"
     guidetolerance="10"
     inkscape:pageopacity="0"
     inkscape:pageshadow="2"
     inkscape:window-width="1366"
     inkscape:window-height="716"
     id="namedview3725"
     showgrid="false"
     inkscape:zoom="0.52931552"
     inkscape:cx="942.7976"
     inkscape:cy="494.99999"
     inkscape:window-x="-8"
     inkscape:window-y="-8"
     inkscape:window-maximized="1"
     inkscape:current-layer="svg3336" /><defs
     id="defs3338"><style
       type="text/css"
       id="style3340"><![CDATA[
.str2 {stroke:#72706F;stroke-width:76;stroke-linecap:round;stroke-linejoin:round}
.str5 {stroke:#C2C1C1;stroke-width:76}
.str4 {stroke:#131516;stroke-width:76;stroke-linecap:round;stroke-linejoin:round}
.str6 {stroke:#D82B40;stroke-width:76}
.str1 {stroke:#1F1A17;stroke-width:353}
.str3 {stroke:#72706F;stroke-width:353;stroke-linecap:round;stroke-linejoin:round}
.str0 {stroke:#131516;stroke-width:353;stroke-linecap:round;stroke-linejoin:round}
.str8 {stroke:#1F1A17;stroke-width:706}
.str7 {stroke:#D82B40;stroke-width:1058}
.fil3 {fill:none}
.fil4 {fill:#FFFFFF}
.fil2 {fill:#9DBDDD}
.fil0 {fill:#EEDDB3}
.fil1 {fill:#F6EAD9}
.fil6 {fill:#D82B40}
.fil5 {fill:#ECECEB}
]]></style></defs><g
     id="Destaque" /><path
     style="fill:none;stroke:#131516;stroke-width:76;stroke-linecap:round;stroke-linejoin:round"
     inkscape:connector-curvature="0"
     d="m 66804,203959 1065,-1427 1865,-2499 1345,-629 2641,-2632 378,-625 -264,-694 566,-723 1326,-891 5523,-684 -433,-3012 1532,-17 4047,-1577 3022,-3010 186,-111 155,-131 1756,-1021 3849,-1014 491,-1020 -111,-2713 145,-253 443,232 2912,1171 1648,377 769,796 1290,-363 558,-172 -72,284 -232,-34 -237,464 905,-157 9,-629 -626,-760 1287,-1202 1548,-1478 247,-237 1330,-617 2028,-1979 3873,-3423 3387,-1169 636,-319 1094,-1471 2119,-564 1785,-1529 1316,-145 920,-781 1950,1127 1020,-883 1270,317 2761,-1161 -99,-276 -1752,-404 -261,-1394 1698,-522 -58,-1757 290,-217 702,-3 1142,1011 842,-1877 1671,-1205 2229,569 1291,-121 1123,-559 1684,936 1214,-172 680,-285 1125,518 1481,-61 1555,-1630 116,-123 228,-127 875,-491 1290,-2027 2717,-1662 17,-1231 1713,-728 -511,-1029 1534,-1306 372,-1173 5114,9200 5541,-317 1836,-1427 -1512,-1938 -1473,-871 282,-631 651,-683 2473,-1001 665,-733 1541,-53 107,-90 1120,-1154 1270,-208 1004,-302 326,-1193 2194,556 518,-285 390,-936 3755,723 817,-600 559,58 3218,898 1906,1378 2119,332 421,14 719,-720 -298,-380 845,-1374 -342,-470 -283,-904 1285,-796 1338,288 1577,-606 2066,-1112 1038,12 641,835 1045,65 354,-573 -160,-1418 1647,-525 409,-677 757,-356 2006,334 4940,1799 -184,158 -1896,1621 -1706,-58 2179,6701 313,3602 -1691,385 -2816,10095 -620,206 -1028,181 -558,-1521 -577,-363 -1533,-888 -1612,-329 -1620,-329 -721,-765 -808,291 -1062,-1278 -1336,346 -912,-178 -351,-1825 -929,-1151 -2390,-1682 -1710,-331 -2069,-1781 -1771,-94 -1289,-12 -1686,101 -1338,1433 -2366,118 -479,12 -1945,46 -1585,2122 -1151,1449 764,1635 -3984,2173 -2470,155 -811,399 -1265,-873 -542,297 -29,29 -1045,325 -2698,-180 -2518,566 -825,332 -92,285 482,1394 655,1500 -1096,922 -958,1729 -549,150 -547,777 153,612 -675,784 -763,885 -9,34 -61,1834 -573,857 -1983,679 -2190,1043 -87,53 -2069,1268 -2112,815 -181,1168 -927,821 -80,21 -1081,687 -1570,-290 -576,54 -1064,-797 -1887,1375 -607,1405 -2683,242 -395,985 254,1224 -1459,1238 -849,-236 -685,1925 -715,34 -467,1299 -1120,1123 -51,341 -184,1267 1287,262 854,849 -22,1761 -1466,450 -290,629 -1396,-1364 -143,-141 65,-844 -883,-227 -26,-1312 -673,-863 -338,-39 -789,155 -1681,1766 -3966,343 -1601,721 -252,312 -2184,2995 -1846,789 -653,796 447,881 762,539 -222,298 -2064,-458 -873,475 -644,1773 -1795,1229 -488,1674 -1121,1006 -72,78 -699,745 -704,503 -1309,-522 -803,687 -1154,7 -412,-104 -191,-365 -213,-862 -1613,-1342 -1844,-724 -3302,2705 -41,34 -240,416 -370,1359 -36,1793 1018,1408 -157,431 -1016,931 -4466,-1033 -261,-242 -450,-660 186,-610 -960,-394 -32,-893 -1151,-1156 -888,-322 -1558,-266 -1164,1098 -307,-145 -1846,1384 -1328,689 -1357,1220 -394,176 -1462,649 -343,527 -2035,36 -868,-338 -1249,655 -1158,-411 -1207,-1793 -533,-2813 878,-1149 -731,-1019 158,-607 -1863,157 1604,-2138 -898,-632 -38,-75 -5,0 z"
     class="fil3 str4"
     id="SERRA DO TEIXEIRA"
     inkscape:label="#SERRA DO TEIXEIRA" /><path
     style="fill:none;stroke:#131516;stroke-width:76;stroke-linecap:round;stroke-linejoin:round"
     inkscape:connector-curvature="0"
     d="m 64496,134326 1072,-1106 402,-1350 924,-181 -2848,-2035 1430,-169 2756,-2898 1482,-2666 743,-866 1635,-1222 946,162 1362,397 3999,1311 2197,182 5823,-409 4689,518 101,-434 2134,-660 -353,-1350 1222,-1157 2823,-595 1081,-2010 2202,-1343 3123,2091 5334,3420 4149,1759 2357,953 4141,363 1253,-329 4706,17 3312,549 4747,-338 3205,-692 1021,-687 1464,-941 3000,-763 2566,552 1665,-484 7584,726 629,9564 169,2561 -3399,-106 5376,12960 2,7 -372,1173 -1534,1307 510,1028 -1712,728 -18,1231 -2716,1663 -1290,2027 -876,491 -227,126 -116,123 -1556,1631 -1480,60 -1125,-517 -680,285 -1214,172 -1684,-936 -1123,558 -1291,121 -2229,-568 -1671,1204 -842,1878 -1142,-1011 -702,2 -290,218 58,1756 -1698,523 261,1393 1752,404 99,276 -2761,1161 -1270,-317 -1021,884 -1950,-1128 -919,782 -1316,145 -1785,1529 -2120,563 -1093,1471 -636,319 -3387,1169 -3874,3423 -2027,1979 -1331,617 -246,237 -1548,1478 -1288,1203 627,759 -10,629 -904,158 237,-465 232,34 73,-283 -559,172 -1290,363 -769,-797 -1648,-377 -2912,-1171 -443,-232 982,-854 269,-808 -489,-1497 -557,-516 -636,-825 300,-1110 -401,-1016 609,-458 -829,-1606 125,-738 -295,-498 -655,-155 -934,-1495 377,-639 -1475,-1599 -373,-1137 358,-329 994,-1040 19,-1009 661,-692 866,-126 407,-3580 -3547,723 -619,-7737 -129,-2032 -2854,-1117 -4224,-412 -203,-3546 -1556,-3119 -6425,-375 -1382,1077 -3237,1156 -2114,-283 -455,-1911 -15,-118 116,-1292 1154,-1718 -1930,-206 -3247,1648 -12,-2899 -24,-1059 0,-5 z"
     class="fil3 str4"
     id="PIANCO" /><path
     style="fill:none;stroke:#131516;stroke-width:76;stroke-linecap:round;stroke-linejoin:round"
     inkscape:connector-curvature="0"
     d="m 337239,128162 1621,-1050 1060,-1333 2394,343 51,-2 1454,-932 801,658 1013,-215 71,-682 -388,-288 876,-3273 -215,-528 155,-2438 24,-380 -1563,-1524 -268,-760 -111,-2504 -78,-2080 -1544,-2615 470,-714 230,-199 1899,1046 1756,130 281,932 1611,-58 2550,1270 6302,-5194 56,-1377 -1103,-830 1209,-1785 3496,-1159 -815,-2835 -511,-1771 -958,-757 -1294,-1251 -506,-941 -290,-537 389,-2574 -493,-1677 -1055,-1014 -208,-1016 581,-1166 7,-29 474,-897 963,-78 242,-604 -234,-804 1061,-99 1082,818 967,-82 1718,1422 1783,-416 857,-1718 527,-341 368,-706 771,-1125 1191,-1067 554,2 1233,-836 1370,1211 1243,-999 857,370 382,375 -49,3954 0,70 5,1923 -570,1253 -1002,1495 -15,1430 -501,989 -60,1285 852,544 -8,1232 613,868 1161,736 9,721 -764,1432 -2838,2194 -2247,1653 -625,1748 -822,1868 2467,5197 180,2375 -2084,1283 1261,1707 -1043,743 745,3085 1297,805 332,100 234,307 2429,3181 1243,2414 925,-115 455,174 459,-699 755,125 990,4377 -2582,-475 312,917 835,728 -351,758 724,1176 -2512,1144 -278,515 -92,525 -677,629 -2552,160 -6370,1374 -1145,-170 -1192,49 -1377,1330 -583,-592 -803,-78 -1309,891 -912,154 -3019,-4901 -569,687 -1926,985 100,276 -1401,312 -1127,1013 -1326,646 -665,-29 -1696,1268 -358,-857 585,-897 -1074,-244 -820,-426 -595,310 -503,-625 -869,1304 -835,-406 -360,-910 503,-457 777,-1347 271,-276 249,-515 191,-767 -612,-2081 -685,-486 -805,-462 -407,-888 -2320,-1023 10,-10 z"
     class="fil3 str4"
     id="BREJO PARAIBANO"
     inkscape:label="#BREJO PARAIBANO" /><path
     style="fill:none;stroke:#131516;stroke-width:76;stroke-linecap:round;stroke-linejoin:round"
     inkscape:connector-curvature="0"
     d="m 366756,104872 823,-1868 624,-1749 2247,-1652 2838,-2195 764,-1432 -9,-721 -1161,-735 -613,-869 8,-1231 -852,-544 61,-1285 500,-990 15,-1429 1001,-1496 572,-1253 -5,-1923 0,-70 1933,375 529,-346 29,-1340 983,307 573,-1550 842,-531 953,-26 675,-586 194,51 1202,78 634,-927 476,-2804 13,-380 -613,-430 1529,-1173 32,-1324 472,-1144 -443,-540 624,-510 382,-1597 -382,-798 -1234,-680 -109,-1413 1943,102 1790,227 576,73 402,138 2097,1134 1686,1004 -3549,5593 194,1162 585,2811 1500,489 407,-530 1158,46 842,-283 704,222 755,-968 634,291 472,-349 -37,845 506,648 -227,2054 -1321,3310 776,133 1563,2068 -75,4072 -566,203 -392,-854 -644,152 -1390,2376 142,1911 -452,736 -12,14 -2444,695 1118,185 687,400 607,1500 1096,571 1696,5 276,346 169,648 533,-8 -779,1114 -487,2859 2240,619 772,2325 -2022,1016 297,1208 1152,1352 -70,997 486,1178 -513,1200 1386,943 712,2224 1066,-49 390,549 1287,823 -1694,1529 -4318,1778 -728,264 -4490,1144 -692,1009 -19,1609 -523,176 -17,992 -1694,1312 -2612,-225 -825,1553 -2206,1553 -1075,363 -4286,-789 -990,-4377 -755,-125 -460,699 -454,-174 -924,116 -1244,-2415 -2429,-3181 -234,-307 -332,-99 -1296,-806 -746,-3084 1043,-743 -1260,-1708 2083,-1282 -179,-2376 -2468,-5197 -5,-9 z"
     class="fil3 str4"
     id="GUARABIRA" /><path
     style="fill:none;stroke:#131516;stroke-width:76;stroke-linecap:round;stroke-linejoin:round"
     inkscape:connector-curvature="0"
     d="m 246447,148675 1147,-2429 36,-569 -614,8 1664,-1774 336,-789 -292,-507 -240,-787 276,-3096 -375,-1764 5397,-179 2391,4799 2600,734 5862,902 3140,278 7469,1045 1374,2076 8808,-3254 -1940,10398 1417,2685 -1637,6646 2431,472 4669,-254 948,-1292 2287,520 1108,-818 885,525 -568,685 387,402 1441,-206 987,-1321 581,-7 179,564 1166,58 2224,-1580 2789,-223 2400,1462 9609,969 1314,528 1107,1057 296,-210 312,716 571,-336 595,137 436,627 -987,716 -95,656 10,12 1035,581 121,500 -571,-186 -1478,1072 1372,382 -346,1553 -956,8 111,396 -631,215 1411,692 -136,378 1282,1855 -191,1563 2417,281 1042,459 470,-317 1101,782 288,-259 1492,1371 1863,906 673,-850 1357,206 234,883 1036,-632 1870,214 -10,29 58,783 -1001,1178 -121,1126 467,544 943,-29 772,564 714,759 1171,-48 2126,709 -118,817 297,51 -94,297 -2637,349 -1525,1350 -374,181 -450,1488 -736,583 1265,3039 308,619 -458,658 303,324 14,1268 -2622,-7 -677,706 -3315,1486 -636,-184 -290,-1386 -1425,-925 -612,-1183 -772,322 -1323,1773 -73,854 -1067,1716 97,280 721,15 -155,1326 -339,-121 -225,1332 -592,603 125,924 -764,-31 126,636 670,68 -849,658 -371,2080 -406,104 -629,-479 -249,259 -327,-373 -46,857 -532,-41 -602,709 55,460 -975,1100 68,561 -643,528 -881,-264 -1171,847 -1507,-2032 -349,-218 -3502,-157 -1626,696 -1052,-169 -1822,-295 -4285,249 -2059,668 -609,-2151 -1123,-687 -3674,2915 -264,370 -208,852 1384,890 179,886 -1142,1054 -891,385 -542,94 -836,-128 -2190,-1754 -774,-442 -726,-257 -5322,-72 -975,-148 -1309,694 -2513,-440 -1210,607 -1831,187 -489,940 -136,1418 73,3290 -1246,1237 842,191 288,626 -303,753 -217,413 -68,126 -1140,1186 167,725 -72,56 -2117,10 -1769,1035 -878,-1030 -1241,541 -4069,-2051 -3486,-4403 1268,-3648 -356,-1188 438,-1161 -1631,-673 -2102,-3252 -2632,-1100 -844,-1045 561,-963 -663,-586 -285,-1035 812,-2572 334,-324 692,714 1333,157 1877,833 1534,-2991 436,-583 967,-346 547,-1154 -847,-1040 -3718,-2913 -1282,-5905 7661,-5976 -11290,-14861 3370,-1602 152,-2983 -660,-575 -1669,-917 -3206,-6058 -508,-469 -653,121 87,-1278 631,-377 -704,-25 -196,-594 642,-112 -22,-677 -315,-453 -902,402 -1319,-1135 136,-478 -10,-22 z"
     class="fil3 str4"
     id="CARIRI ORIENTAL"
     inkscape:label="#CARIRI ORIENTAL" /><path
     style="fill:none;stroke:#131516;stroke-width:76;stroke-linecap:round;stroke-linejoin:round"
     inkscape:connector-curvature="0"
     d="m 267775,143502 -194,-3401 484,-1587 1503,-1302 -215,-1185 -1725,-9559 -95,-900 1343,-2944 -44,-685 9111,-1197 4679,-3017 1870,-939 929,-936 627,68 1234,-22 1108,-839 815,-2877 3322,-6587 16,-32 257,-3972 890,-13758 878,-4706 968,-5182 1009,-3907 361,-11660 299,-2161 985,-111 4233,-254 3119,-574 1282,305 484,-324 1778,409 900,-813 518,-181 205,-73 1082,-377 740,-1174 806,576 -116,491 721,24 605,-534 1156,2419 1601,1328 2582,1188 544,1110 -501,842 610,194 220,718 3053,864 1367,-501 2320,953 10038,-600 -1665,6414 -839,3138 -654,2441 -191,667 448,2838 -1188,4955 -339,1964 -934,977 313,561 -912,509 -443,866 -1270,312 21,1214 1703,1072 673,63 513,822 -733,985 399,895 -87,1040 -607,325 -138,675 1011,984 685,-19 1176,1074 1270,1522 2748,2138 547,1118 1151,1127 2069,753 186,-1720 -385,-513 586,-240 140,-728 982,-26 457,-837 605,-281 2657,-5 355,34 774,97 881,-1249 1659,361 1084,869 85,-320 1236,-196 791,-641 2304,1410 1103,830 -56,1377 -6302,5194 -2550,-1270 -1611,58 -281,-932 -1756,-130 -1899,-1046 -230,199 -469,714 1543,2615 77,2080 112,2504 268,760 1563,1524 -24,380 -155,2438 215,528 -875,3273 -1307,-498 -1132,667 -174,-713 -542,-387 -777,-1145 46,-1359 312,-329 -970,-537 -3121,-1425 -1492,-1365 -2175,-346 -2245,-1458 -1285,-598 -1505,73 -1127,500 196,1104 -2816,2007 -225,932 -1340,1098 2424,3549 -627,876 779,-22 590,545 -938,1816 39,1515 -765,297 -440,637 755,84 -1268,1142 -578,2366 -5533,7120 -356,119 -77,740 -58,41 -1403,-946 -1800,119 -3479,-1340 -1640,-204 -3351,1348 -3370,4125 -5932,-486 225,353 -6953,-842 -4458,-467 -8809,3254 -1374,-2076 -7468,-1045 -15,2 z"
     class="fil3 str4"
     id="CURIMATAU OCIDENTAL"
     inkscape:label="#CURIMATAU OCIDENTAL" /><path
     style="fill:none;stroke:#131516;stroke-width:76;stroke-linecap:round;stroke-linejoin:round"
     inkscape:connector-curvature="0"
     d="m 410198,156849 163,-1401 1103,-285 483,-1050 654,-1500 46,-938 1374,-3796 832,-1819 1326,401 263,3844 1123,-1807 1780,-574 1885,248 1304,-410 1543,71 1302,4170 1311,1280 2229,-805 3570,-371 1875,678 571,910 1132,-107 1082,-871 551,-2721 1012,394 -363,970 -182,1331 1456,-44 678,859 363,929 -295,1456 2356,1476 644,77 2944,2439 639,508 263,-172 578,644 881,-407 2649,644 498,554 -254,1117 511,-72 44,428 290,-89 138,1033 268,-85 472,830 -293,1918 -716,6452 607,1058 254,333 -815,680 -428,932 568,2777 -1163,1834 -644,2114 -849,189 -520,-569 -196,-63 -1469,-481 -476,-155 -1403,1229 -1933,-1364 -770,980 -609,0 -70,-929 -978,94 -65,527 -32,10 -106,36 -322,-65 -1030,-1103 -908,-450 -1976,1004 -1120,123 -953,-1950 -1646,-1601 -82,-719 -82,-184 -660,-1100 590,-1929 -78,-861 -2259,-1616 -2403,-2482 -2044,-883 -1947,-1568 -1052,-578 -218,-118 -288,-25 -946,796 -999,438 -39,10 -2422,-501 -689,-421 -2204,-540 -842,-287 -322,-1643 625,-600 -2202,-2231 -1164,-2 -341,-1505 -1338,-2189 370,-789 5,0 z"
     class="fil3 str4"
     id="LITORAL SUL"
     inkscape:label="#LITORAL SUL" /><path
     style="fill:none;stroke:#131516;stroke-width:76;stroke-linecap:round;stroke-linejoin:round"
     inkscape:connector-curvature="0"
     d="m 172696,227041 804,-288 2683,-321 339,-755 630,-191 102,-784 -367,-595 198,-857 -188,-128 -1174,-56 -9,-79 248,-156 1297,-234 479,-416 1790,-32 4708,-3263 -29,-1391 -597,-878 353,-756 2763,-502 -653,-2291 -1372,181 -351,-450 1485,-648 -43,-699 832,-296 615,288 2146,-854 706,-854 939,-48 803,617 556,428 -77,-556 341,29 825,-221 167,-132 803,-1367 -530,-327 -29,-426 1991,-3029 -1118,-1582 -288,-1976 -157,-375 -871,-1302 -728,-764 -256,-269 -636,-794 -431,-1407 -244,-359 -1464,-1470 -215,-1288 38,-931 138,-392 958,-1050 709,-1824 1369,-2243 1343,-1538 2429,-1964 1345,-1537 1698,-546 2105,-1413 80,-5 1976,-126 1597,-1384 2552,-602 489,-199 119,-48 1606,-801 803,750 2095,-1570 -77,-438 -211,-329 -946,-285 153,-869 -356,-585 -1478,-637 -271,-953 -1059,-987 -90,-239 1004,-383 -336,-638 -927,-235 1362,-2064 -1396,-1739 -2596,-1132 -24,-2 -317,104 2816,-10096 1691,-385 -312,-3602 -2180,-6701 1706,58 1897,-1621 1026,484 1758,-2165 1372,-1070 1050,-203 1127,315 1450,-187 28,373 1271,198 1594,-355 1132,897 1611,-92 2364,-1113 934,148 624,-448 1222,-145 2566,576 3486,-4176 2971,-3556 20,-36 104,-2342 -407,-1732 1239,-1099 73,-844 1274,-672 552,-1689 2470,384 1834,243 1159,597 2025,3856 -479,661 452,677 -835,990 845,302 -1285,569 298,2100 -564,302 1115,1855 44,1043 -109,392 375,1764 -276,3096 240,787 292,508 -336,788 -1664,1774 614,-7 -36,568 -1147,2429 -135,479 1318,1134 903,-401 314,452 22,678 -641,111 196,595 704,25 -632,377 -87,1277 653,-121 508,470 3206,6058 1669,916 661,576 -153,2983 -3370,1601 11291,14862 -7662,5975 1282,5906 3719,2912 846,1041 -546,1154 -968,345 -435,584 -1534,2990 -1878,-832 -1333,-158 -692,-713 -333,324 -813,2572 285,1035 663,586 -561,962 844,1045 2632,1101 2103,3252 1630,672 -438,1161 356,1188 -1268,3649 3486,4402 -1730,-326 -1951,571 -313,222 -612,1014 612,2293 -815,1183 689,944 -338,484 -1483,-271 -2318,-997 -1253,2354 -51,1266 -520,594 0,3054 0,4584 -2308,1302 -738,674 -140,271 -97,187 22,242 781,143 346,1228 1130,85 924,1040 -2,920 -1125,854 -3039,573 -2151,1294 -837,636 714,1556 -2349,75 -1592,-588 -326,605 1100,1197 -728,112 -174,457 -1863,-10 -189,68 -832,298 -370,1737 -891,530 -1543,-615 -1447,-14 -237,-3 -1231,295 -215,129 -937,1202 -5419,1887 -1930,1456 -1841,571 -1357,1457 -1621,1739 -2420,595 -304,426 36,1328 -506,571 -118,133 -479,194 -2250,-208 -1466,607 -3247,-1464 -2272,-2514 -224,-253 -266,-317 -4689,-685 -854,-1648 -2964,-3464 -251,-1120 203,-1822 87,-774 -34,-101 -392,-80 -1623,391 -2098,-752 -372,-510 22,-779 1367,-953 -838,-1232 593,-1255 999,-274 34,-142 34,-153 -472,-2446 453,-1335 -1447,-2581 -135,-1466 1066,-1776 -128,-1253 -249,-1583 -781,-1112 -315,-235 -1490,-29 -20,-51 -72,5 -424,-726 -524,22 -390,-784 -564,-12 78,-2453 -1621,-929 -1263,716 -208,300 126,1239 -1011,-8 -218,-350 -726,430 -1060,-435 -1823,-128 -1527,416 -2001,-777 -856,581 -1503,-237 -2511,1291 -191,-578 -1582,41 0,-254 902,-2013 -193,-665 4,5 z"
     class="fil3 str4"
     id="CARIRI OCIDENTAL"
     inkscape:label="#CARIRI OCIDENTAL" /><path
     style="fill:none;stroke:#131516;stroke-width:76;stroke-linecap:round;stroke-linejoin:round"
     inkscape:connector-curvature="0"
     d="m 53955,115637 71,-573 1649,-617 1099,327 2030,-63 261,-484 230,-561 1248,210 -317,-530 757,-658 765,-1599 607,-1035 244,-581 -1026,-208 -1354,-1635 684,-869 87,-3508 1326,-3331 -254,-2468 -2066,85 1829,-1778 51,-8252 1014,-4921 517,-890 -1260,-941 -22,-615 1137,-1255 5,-1329 900,-1432 1751,-48 1820,-810 290,-1193 -651,-3525 2424,-530 -580,-1904 3546,-2467 620,275 1287,-597 1125,338 196,34 2939,506 912,1108 530,94 2896,-7 1463,-839 1362,2973 1708,387 104,24 380,-58 1945,-1342 286,-1752 1364,-847 1345,-2419 228,-191 750,-303 297,-696 610,-63 249,-1118 631,-106 52,41 147,1120 844,883 -484,1437 796,119 721,67 1053,549 -956,5318 3094,-17 1408,65 559,346 80,51 1872,4166 -740,948 -506,1638 1140,1316 94,477 -445,486 653,1534 787,-583 1415,385 3767,-1036 1678,1670 1500,-567 1694,1435 8518,350 254,-621 -774,-2178 375,-1241 -220,-1071 3670,-160 481,-1500 1323,-387 1299,297 959,-224 464,-825 -213,-999 1280,174 1270,-460 237,-549 -796,-893 2076,216 1420,-27 1846,-124 537,-1579 1667,-431 934,-46 254,-1401 450,-65 1125,2393 3251,1558 213,-17 1810,-146 1797,-599 3428,-1911 1502,-288 242,-1542 3245,2618 -390,17 -254,140 -1529,1679 281,1036 636,510 -583,3274 -29,1219 484,319 162,1079 -295,2644 1214,1989 -992,1417 465,828 -1512,3271 -3735,263 -2180,1031 -1116,1805 523,571 472,1020 -561,1457 -874,997 1222,384 2470,-897 1372,1147 24,3283 -344,471 -1906,690 56,924 975,837 909,1771 699,641 349,619 -900,194 -172,341 605,254 1038,1534 -281,1599 1318,1403 1176,1757 1631,195 -687,2163 1456,728 34,332 -820,704 -2308,464 -1299,-1449 -1708,249 -331,963 -1220,486 -227,1634 907,418 -261,995 -155,11 -7585,-725 -1664,483 -2567,-551 -3000,762 -1463,941 -1021,687 -3206,692 -4746,339 -3312,-549 -4705,-17 -1254,329 -4142,-363 -2356,-953 -4149,-1759 -5334,-3421 -3123,-2090 -2202,1342 -1081,2011 -2823,595 -1222,1156 353,1350 -2134,661 -102,433 -4688,-518 -5823,409 -2197,-181 -3999,-1312 -1362,-397 -946,-162 -5571,47 -5446,-545 -1132,3 -1602,-165 -1926,-2110 -1991,-181 -469,-3244 -5,9 z"
     class="fil3 str4"
     id="SOUSA" /><path
     style="fill:none;stroke:#131516;stroke-width:76;stroke-linecap:round;stroke-linejoin:round"
     inkscape:connector-curvature="0"
     d="m 329860,91764 1270,-311 443,-867 912,-508 -312,-561 934,-978 338,-1964 1189,-4955 -448,-2837 191,-668 653,-2441 840,-3138 1664,-6413 8059,-482 728,-43 24,-3 4996,-1253 1081,109 421,-82 423,-128 825,-518 2294,-1967 1171,419 682,-134 239,-251 189,-196 317,-53 2378,927 1819,340 373,567 1841,-221 883,1215 51,609 1137,954 12,10 82,132 1800,39 -68,474 637,112 213,-39 445,-143 133,-82 566,-939 653,121 310,-336 476,343 716,-411 204,-353 832,358 595,-278 1205,109 619,602 419,-351 865,656 770,89 443,-406 980,-51 442,-629 51,5 1435,1081 442,-820 116,917 109,1413 1234,680 383,798 -383,1597 -624,510 443,540 -472,1144 -32,1324 -1528,1173 612,430 -13,380 -476,2804 -634,927 -1202,-78 -194,-51 -675,586 -953,26 -842,531 -573,1550 -982,-307 -29,1340 -530,346 -1933,-375 48,-3953 -382,-375 -857,-370 -1243,999 -1369,-1212 -1234,837 -554,-2 -1190,1066 -772,1125 -368,707 -527,341 -857,1718 -1783,416 -1717,-1423 -968,83 -1081,-818 -1062,99 234,803 -241,605 -963,78 -475,897 -7,29 -581,1166 209,1016 1054,1014 494,1676 -390,2574 291,537 505,942 1295,1250 958,758 510,1771 815,2835 -3496,1159 -1209,1785 -2303,-1410 -791,641 -1237,195 -84,320 -1084,-869 -1660,-360 -880,1248 -775,-96 -355,-34 -2656,4 -605,281 -457,837 -983,27 -140,728 -586,239 385,513 -186,1720 -2069,-752 -1151,-1127 -547,-1118 -2748,-2139 -1270,-1521 -1176,-1074 -685,19 -1011,-985 138,-675 607,-324 87,-1040 -399,-895 733,-985 -513,-822 -672,-63 -1703,-1072 -22,-1215 7,5 z"
     class="fil3 str4"
     id="CURIMATAU ORIENTAL"
     inkscape:label="#CURIMATAU ORIENTAL" /><path
     style="fill:none;stroke:#131516;stroke-width:76;stroke-linecap:round;stroke-linejoin:round"
     inkscape:connector-curvature="0"
     d="m 150323,97781 874,-997 561,-1456 -472,-1021 -522,-571 1115,-1805 2179,-1030 3736,-264 8523,-1415 1062,290 6058,157 3130,-1352 3370,544 -711,2107 1130,1232 1763,873 -542,2969 -473,919 1736,1422 -355,772 571,1224 29,1387 2262,1494 1635,2741 453,1624 341,4642 1570,-14 861,1248 1287,97 -252,885 -1383,953 1122,117 1115,914 -842,2231 733,948 146,980 2250,989 1304,1195 667,54 506,-8 375,859 1270,252 1834,1234 1248,-37 1614,-1071 520,694 1313,498 -375,1447 5957,1570 858,1036 443,46 1953,-482 1795,-1021 1197,10 518,-351 721,230 2277,3697 -678,776 -145,1967 -930,479 986,893 -850,3534 -1449,186 -1127,-314 -1050,203 -1372,1070 -1759,2165 -1025,-484 183,-158 -4940,-1799 -2005,-334 -757,356 -409,677 -1648,525 160,1418 -353,573 -1046,-65 -640,-835 -1038,-12 -2067,1112 -1577,606 -1338,-288 -1284,796 283,904 341,470 -845,1374 298,380 -718,720 -421,-14 -2119,-332 -1907,-1378 -3218,-898 -558,-58 -818,600 -3755,-723 -389,936 -518,285 -2194,-556 -327,1193 -1004,302 -1270,208 -1120,1154 -106,90 -1541,53 -666,733 -2472,1001 -651,683 -283,631 1473,871 1512,1938 -1836,1427 -5540,317 -5114,-9200 -3,-8 -5375,-12960 3399,107 -170,-2562 -628,-9563 154,-12 262,-995 -907,-418 227,-1633 1219,-486 332,-963 1707,-250 1300,1450 2308,-465 820,-704 -34,-331 -1457,-729 687,-2162 -1630,-196 -1176,-1757 -1318,-1403 280,-1599 -1037,-1534 -605,-254 172,-341 899,-193 -348,-620 -699,-641 -910,-1771 -975,-837 -55,-924 1906,-690 344,-471 -25,-3283 -1371,-1147 -2470,898 -1222,-385 -15,-12 z"
     class="fil3 str4"
     id="PATOS" /><path
     style="fill:none;stroke:#131516;stroke-width:76;stroke-linecap:round;stroke-linejoin:round"
     inkscape:connector-curvature="0"
     d="m 323607,133687 578,-2366 1267,-1142 -754,-84 440,-637 764,-297 -38,-1515 938,-1816 -590,-545 -779,22 626,-876 -2424,-3549 1341,-1098 225,-932 2816,-2007 -196,-1104 1127,-500 1505,-73 1285,598 2245,1458 2174,346 1493,1365 3121,1425 970,537 -312,329 -46,1359 777,1145 542,387 174,713 1132,-667 1306,498 387,288 -70,682 -1013,215 -801,-658 -1454,932 -51,2 -2395,-343 -1060,1333 -1621,1050 2321,1023 406,888 806,462 684,487 612,2080 -191,767 -249,515 -271,276 -777,1348 -503,457 -333,-191 -721,-35 -279,-875 -404,486 -730,-380 -1253,327 -535,-830 -634,-624 -1652,-2013 -789,-469 -2731,2049 -847,472 -121,60 -1926,194 -2346,-12 -1171,-934 5,-3 z"
     class="fil3 str4"
     id="ESPERANCA" /><path
     style="fill:none;stroke:#131516;stroke-width:76;stroke-linecap:round;stroke-linejoin:round"
     inkscape:connector-curvature="0"
     d="m 317466,210266 644,-527 -68,-561 975,-1102 -56,-459 603,-709 532,41 46,-856 327,373 249,-259 629,478 406,-103 370,-2081 850,-658 -671,-68 -125,-636 764,31 -126,-924 593,-602 225,-1333 339,121 154,-1326 -720,-14 -97,-281 1067,-1715 72,-854 1324,-1774 771,-321 613,1183 1424,924 291,1386 636,184 3314,-1485 678,-707 2622,7 -14,-1267 -303,-324 457,-659 -307,-619 -1265,-3038 735,-584 450,-1487 375,-182 1524,-1350 2638,-348 94,-298 -298,-50 119,-818 -2127,-709 -1171,48 -713,-759 -772,-564 -944,29 -467,-544 122,-1125 1001,-1179 -58,-783 10,-29 232,-249 77,201 249,-383 521,237 539,-694 617,206 733,-1486 1212,-278 -85,-2405 1343,-876 421,453 765,-431 810,375 -290,252 181,617 1270,-34 530,-832 506,283 -53,672 62,327 832,-544 642,372 -49,653 332,194 696,-479 525,60 547,-892 758,532 1163,-743 324,757 1154,-1064 179,743 225,280 883,-430 479,234 905,-467 675,987 528,27 329,-322 -102,-682 774,-46 145,-844 1203,631 590,-672 2119,-644 1227,-460 841,244 716,-314 1384,150 1086,404 533,-752 680,334 1727,-1319 1239,649 619,-322 343,730 504,170 -731,1732 448,668 -697,469 -12,643 1268,1350 3919,620 409,1425 -799,556 -215,1219 -825,664 -121,212 -29,1544 -791,2121 -1050,1135 36,803 327,160 385,97 1601,-506 -2,41 -566,1171 4,24 -157,291 424,825 -850,125 -648,1556 1829,2378 -1309,286 -55,11 -591,976 -3087,553 -1265,-532 -1843,-464 -954,389 -1410,19 -445,373 -114,141 -162,203 -249,346 -1043,1449 -895,820 -1797,1183 -475,203 -1940,310 -641,-15 -1403,-29 -182,-639 -520,-232 -895,605 -447,833 -646,321 -2008,196 -743,460 -344,781 -614,310 -1125,106 -2042,1510 -1031,232 -2849,782 -499,138 -900,317 -1442,-509 -2281,441 -1081,-167 -1057,725 -121,1053 -114,1004 -2270,1926 -3135,-862 -1154,615 -1727,-303 -1205,240 -1256,1514 -1258,-295 -580,1408 -573,-34 -2021,-305 -1328,-1500 -179,-62 12,2 z"
     class="fil3 str4"
     id="UMBUZEIRO" /><path
     style="fill:none;stroke:#131516;stroke-width:76;stroke-linecap:round;stroke-linejoin:round"
     inkscape:connector-curvature="0"
     d="m 390489,95664 2443,-694 12,-15 453,-735 -143,-1911 1391,-2376 643,-152 393,854 566,-204 74,-4072 -1562,-2068 -777,-133 1321,-3309 228,-2054 -506,-649 36,-844 -471,348 -634,-290 -755,968 -704,-223 -842,283 -1159,-46 -406,530 -1500,-489 -586,-2811 -193,-1161 3549,-5593 2562,2927 1156,632 6193,-52 2352,-1086 2298,-246 854,-1089 10,-32 169,-568 523,237 1103,2538 963,912 604,22 2611,909 1410,-735 1292,109 1442,-1861 1016,-655 1205,-2724 975,80 223,-627 674,-273 3129,2973 1037,346 2289,-1176 929,-1277 1074,-271 847,336 2097,-511 1365,-1231 953,-542 160,315 229,455 220,12200 356,4084 903,3142 757,1355 1766,789 -392,1154 65,1306 240,1139 -303,1198 608,895 -1094,1490 651,373 -49,1311 -401,230 1635,-215 392,-15 329,2480 247,3179 1205,3851 -5,1130 -1602,767 -1180,1280 -1125,846 -1297,99 -1507,881 -1306,165 -1503,689 -5320,1227 -2400,1708 -1821,38 -1604,525 -1173,-150 -608,-140 -2881,387 -1832,194 -638,-237 -2623,1364 -21,-235 -574,465 -2542,-1546 -1343,193 -317,523 -1836,757 -1933,-147 -656,278 -1287,-823 -389,-549 -1067,49 -711,-2224 -1387,-943 513,-1200 -486,-1178 70,-997 -1151,-1353 -298,-1207 2023,-1016 -772,-2324 -2240,-620 486,-2860 779,-1112 -532,7 -170,-648 -276,-347 -1696,-4 -1096,-571 -607,-1500 -687,-399 -1117,-187 -5,10 z"
     class="fil3 str4"
     id="LITORAL NORTE"
     inkscape:label="#LITORAL NORTE" /><path
     style="fill:none;stroke:#131516;stroke-width:76;stroke-linecap:round;stroke-linejoin:round"
     inkscape:connector-curvature="0"
     d="m 245721,123626 -955,-903 -731,-1688 617,-1033 1108,-808 1585,288 505,-255 600,-885 196,-2966 525,-660 1955,570 2303,23 743,309 4611,-6834 126,-905 -741,-929 410,-1120 1061,-796 1817,147 1435,-1683 2054,-799 554,-721 622,-3904 -344,-2359 -874,-682 -1086,-821 -60,-115 -457,-596 -627,-244 -114,-27 -1166,-266 -1495,-2250 34,-372 1106,-1348 1144,-4579 1732,-4573 -51,-196 -307,-1171 1183,-578 644,116 653,666 3145,1422 1427,2202 1232,-1123 1224,559 261,-375 -583,-2850 -247,-4333 -636,-745 -1026,-319 -1171,-237 -46,-10 -975,-893 -469,-2329 -1962,-666 -2071,-1224 -728,-135 -252,-2412 -215,-2054 99,-1488 482,-1333 1906,-3844 281,-1543 561,-3078 4248,324 3411,126 3939,-7522 3520,1764 2058,-834 54,-22 3948,-2282 1347,1331 1706,1684 94,946 51,3126 -116,345 -1679,2415 -271,391 -121,482 232,1357 80,249 1065,376 1693,399 2139,445 152,3629 3375,-380 -300,2160 -361,11661 -1008,3907 -968,5182 -878,4705 -891,13759 -256,3972 -17,32 -3321,6587 -816,2877 -1108,839 -1234,22 -626,-68 -929,936 -1870,939 -4679,3017 -9111,1197 44,685 -1343,2944 94,900 1725,9559 216,1185 -1503,1301 -484,1588 194,3401 -3140,-278 -5862,-903 -2601,-733 -2390,-4799 -5397,179 109,-392 -44,-1043 -1115,-1855 564,-303 -298,-2100 1285,-568 -845,-303 835,-989 -453,-678 480,-660 -2025,-3856 -1159,-598 9,-2 z"
     class="fil3 str4"
     id="SERIDO ORIENTAL"
     inkscape:label="#SERIDO ORIENTAL" /><path
     style="fill:none;stroke:#131516;stroke-width:76;stroke-linecap:round;stroke-linejoin:round"
     inkscape:connector-curvature="0"
     d="m 98068,64715 556,-692 1002,-19 -798,-2454 1294,-1521 -680,-199 77,-326 3813,-80 1147,-876 72,-1500 1391,-762 22,1086 1292,1599 1195,-28 506,-92 929,-1060 31,-22 1960,-1323 1241,51 442,-346 218,-586 -467,-491 32,-2516 3128,1157 614,-944 1401,-363 -285,-956 1086,-1318 -985,-1023 1043,-1246 1224,-428 876,-417 5,-48 -1036,-842 1500,-1584 1752,-291 2434,116 1625,78 -34,-341 -12,-119 -1471,-1490 104,-818 1099,-1272 -1754,-915 1626,-776 -42,-129 -287,-314 -1125,-348 225,-351 989,-1046 1113,-461 -90,-1600 591,-701 3653,-1621 767,-203 31,-10 1169,1038 2220,281 3448,26 907,-1052 2446,-370 1795,-271 1657,-1256 1241,-416 443,-375 987,1002 2277,155 401,-1442 1633,-34 2054,-44 -55,-854 1545,5 702,798 2649,-735 556,-2746 905,-866 2175,-353 1998,416 1563,-375 1159,-2446 477,-225 796,-259 1886,409 2055,-2095 2927,-1069 1135,-833 183,-7 1135,864 1592,-252 979,-1030 620,-1561 317,-431 1110,-145 320,15 1207,179 931,1476 1679,-368 411,2 1036,1014 2243,-2 -182,762 552,3096 -230,1737 597,1275 -868,3501 960,1292 1040,-162 -965,1974 -941,1072 -2064,329 -154,1681 -1021,861 -2710,629 -568,266 -494,230 -1505,1108 -2095,2782 -459,3273 -1336,93 -2250,-441 -1270,230 -1033,2516 -551,491 -131,63 -2695,1297 -639,464 -1396,2221 -24,2748 -1212,1147 -29,1137 -70,106 -735,1118 -141,1694 1190,1047 538,1113 -44,80 -973,1759 -655,6762 -1972,1850 -215,104 -1795,119 -1302,-15 -2044,92 -3244,-2617 -242,1541 -1503,287 -3427,1911 -1798,601 -1810,145 -213,17 -3251,-1558 -1125,-2393 -450,66 -254,1400 -934,46 -1667,431 -537,1580 -1846,123 -1420,27 -2075,-216 795,893 -236,549 -1271,460 -1279,-174 212,999 -464,825 -958,225 -1299,-298 -1323,387 -482,1500 -3670,160 220,1072 -375,1241 774,2177 -254,622 -8518,-351 -1693,-1435 -1500,566 -1679,-1669 -3767,1036 -1415,-385 -786,583 -653,-1534 444,-486 -94,-477 -1139,-1316 505,-1638 741,-948 -1873,-4166 -80,-51 -558,-346 -1409,-65 -3094,17 956,-5318 -1052,-549 7,15 z"
     class="fil3 str4"
     id="CATOLE DO ROCHA"
     inkscape:label="#CATOLE DO ROCHA" /><path
     style="fill:none;stroke:#131516;stroke-width:76;stroke-linecap:round;stroke-linejoin:round"
     inkscape:connector-curvature="0"
     d="m 16755,121903 445,-423 999,-162 992,-1471 70,-104 -641,-835 121,-675 -1140,-264 -868,-1103 5,-14 14,-44 1077,-938 -789,-1387 402,-140 -46,-960 -5,-119 -660,-503 984,-806 2862,-750 -218,-774 397,-283 1614,-116 -17,-1031 1744,-200 1282,-1012 721,-254 520,-184 -196,-825 542,-863 215,-344 -802,-1038 111,-203 1688,-1011 624,-963 704,-665 1517,-387 -94,-697 -619,-779 89,-104 1282,-44 1329,448 358,-1188 -1638,-602 -1239,-1512 -1205,-411 -91,-250 40,-116 187,-520 -832,-1265 172,-1159 -983,-677 -861,-1873 10,-17 283,-484 -344,-588 958,-1877 428,-152 -196,-494 1145,-126 522,-1011 27,-1079 -1116,-1314 201,-1301 675,-319 271,-1280 1928,-1256 -416,-1614 -1093,-962 1076,-1319 51,-745 767,-491 -104,-554 2151,-2581 -380,307 -617,-457 421,-1648 1906,-1405 2705,-3332 66,-1688 1478,-796 162,-1132 72,-506 3278,-2828 728,181 -1154,-1592 -198,-94 -1379,941 -970,-421 -2397,617 -489,-97 -370,-205 -51,-472 -861,-136 -525,148 -874,-798 784,-337 274,-916 464,-247 1667,-121 -295,-1217 929,-259 218,-547 217,-84 332,-129 1686,-96 -528,-337 533,-672 1212,-237 1558,317 251,70 1343,1163 1239,-1289 1021,-515 1025,-714 1894,-377 -1944,1707 -1529,2149 -20,191 772,1558 -346,1943 2250,-259 1587,-385 87,56 293,1093 2414,1186 2199,-414 550,-43 984,640 520,436 353,395 254,960 750,585 160,2028 1079,-235 319,917 1089,-547 520,-27 365,175 412,196 921,-100 155,87 1244,1515 515,1381 131,213 2022,126 586,1786 580,1904 -2424,529 651,3525 -290,1193 -1820,810 -1751,49 -900,1432 -5,1328 -1137,1255 22,615 1260,941 -517,891 -1014,4920 -51,8252 -1829,1779 2066,-85 254,2467 -1325,3332 -87,3507 -685,869 1354,1635 1026,208 -244,581 -607,1035 -765,1600 -757,657 317,531 -1248,-211 -230,561 -262,484 -2030,63 -1098,-327 -1650,617 -70,573 470,3245 1990,181 1926,2110 1602,164 1132,-2 5446,544 5571,-46 -1635,1222 -743,866 -1483,2666 -2755,2898 -1430,170 2847,2034 -924,182 -402,1350 -1071,1105 24,1060 12,2898 3247,-1647 1930,205 -1154,1718 -116,1292 -1785,-315 -307,619 -397,35 -1662,46 -196,-499 -1014,-75 -4432,1266 186,1052 -239,380 -946,-54 -1268,2335 -130,806 60,1548 -655,1822 924,1149 -1058,597 -406,857 -329,931 232,881 -442,1267 2,1655 868,140 -101,1188 653,1629 -706,1308 -1950,-41 -857,1674 -1425,337 -1059,1057 -1525,440 -391,777 -716,-286 -949,-493 -805,53 -225,-1145 -1232,240 -36,298 -389,-550 -465,-29 -442,-1625 -2343,-1667 37,-83 27,-800 -139,-1244 1130,-1018 607,-1369 -885,-1696 53,-1377 -1096,-259 -259,-1292 274,-919 -632,-450 -2799,989 -1325,-203 -610,-1296 -528,232 -1095,-738 -361,-1055 -486,-1425 358,-1171 -409,-469 -280,-133 -1154,240 -779,-1082 -196,-12 -1793,94 -2879,605 530,-1563 564,-592 101,-109 10,-75 -915,-835 1092,-619 -226,-2638 371,-607 1303,-1773 567,-1747 67,-207 -375,-758 -829,-590 -455,-1062 -639,-378 791,-1427 25,-709 -2200,-822 -181,-1222 -2431,-1217 -385,-135 -1495,-530 -2248,-1621 -846,126 -697,-503 5,9 z"
     class="fil3 str4"
     id="CAJAZEIRAS" /><path
     style="fill:none;stroke:#131516;stroke-width:76;stroke-linecap:round;stroke-linejoin:round"
     inkscape:connector-curvature="0"
     d="m 22254,191086 -354,-1383 581,-112 220,-2392 924,-622 1827,24 689,-709 499,-510 2196,-506 -418,-542 612,-667 -322,-922 416,-719 136,-1306 -349,-615 903,-515 -211,-673 264,-1047 1572,-1831 -450,-1133 -648,-1105 -493,-179 137,-366 4583,-266 -78,-411 -194,-1023 1072,-656 117,-518 1071,97 87,-2034 -1219,-167 2,-32 12,-152 559,-1321 748,-329 757,-2296 73,-87 1642,-2018 987,-1947 281,-641 2342,1667 442,1626 465,28 389,549 37,-297 1231,-240 225,1145 806,-53 948,493 716,286 392,-777 1524,-440 1060,-1058 1425,-336 856,-1674 1950,41 707,-1309 -654,-1628 102,-1188 -868,-140 -3,-1655 443,-1267 -232,-881 329,-931 406,-857 1057,-597 -924,-1150 656,-1821 -61,-1548 131,-806 1268,-2335 945,54 240,-380 -186,-1053 4432,-1265 1014,75 195,498 1662,-46 397,-34 307,-619 1786,315 14,118 455,1911 2115,284 3236,-1157 1382,-1076 6425,375 1556,3118 203,3547 4224,411 2855,1118 128,2032 619,7736 3547,-723 -406,3581 -867,125 -660,692 -19,1009 -995,1040 -358,329 373,1138 1476,1598 -378,640 934,1494 656,155 295,499 -126,737 830,1607 -610,457 402,1016 -300,1111 636,825 556,515 489,1497 -268,808 -983,854 -145,254 112,2712 -492,1021 -3849,1014 -1756,1021 -155,130 -186,112 -3022,3009 -4047,1578 -1531,17 432,3012 -5523,684 -1325,890 -566,724 263,694 -377,624 -2642,2633 -1345,629 -1865,2498 -1065,1428 -573,-1135 421,-1337 -573,-88 116,-701 -503,-1232 -651,-467 -407,269 -757,-305 -820,177 -1410,-1962 -586,1166 -707,382 -191,789 -1245,999 -2388,767 341,617 -970,1149 -305,-7 -1677,-42 -740,-1057 -2499,-256 -767,1408 -2252,319 -1246,547 -94,1241 -2204,-80 -1445,637 -1500,-666 -2087,772 -1084,-508 -300,314 -351,-849 -885,915 -835,-63 -455,-1355 -1084,-283 -43,-1490 -900,-1283 -1012,-660 -123,-1498 -1640,-907 -82,-975 -1026,-63 75,-938 -1418,-1215 -699,324 -312,-186 -1539,-2615 -1018,-247 -1038,-1183 -1067,-14 15,9 z"
     class="fil3 str4"
     id="ITAPORANGA" /><path
     style="fill:none;stroke:#131516;stroke-width:76;stroke-linecap:round;stroke-linejoin:round"
     inkscape:connector-curvature="0"
     d="m 284901,156452 -1418,-2685 1940,-10398 4459,467 6953,842 -225,-353 5932,486 3370,-4125 3351,-1347 1640,203 3479,1340 1800,-118 1403,946 58,-41 78,-741 355,-118 5533,-7120 1171,934 2347,12 1925,-194 121,-60 847,-472 2731,-2049 789,469 1652,2013 634,624 535,830 1253,-327 730,380 405,-486 278,875 721,35 334,191 360,910 835,406 868,-1304 503,624 595,-310 821,426 1074,245 -586,897 358,856 1696,-1267 666,29 1325,-646 1127,-1014 1401,-312 -99,-276 1926,-984 568,-688 3019,4902 912,-155 1310,-890 803,77 583,593 1376,-1331 1193,-48 423,2305 1082,799 314,842 -1659,1120 -4290,1323 -893,1686 -183,179 -2954,1217 -157,777 -465,3786 -4505,9014 2400,-970 2267,535 -4066,10325 -1663,4183 -546,893 -525,-61 -697,479 -331,-194 48,-653 -641,-372 -833,544 -62,-327 53,-672 -506,-283 -530,832 -1270,34 -181,-617 290,-252 -810,-375 -765,431 -421,-452 -1342,876 84,2404 -1212,279 -733,1485 -617,-206 -539,695 -520,-238 -249,383 -78,-201 -232,249 -1870,-213 -1036,632 -234,-883 -1358,-206 -672,849 -1863,-905 -1492,-1372 -289,259 -1100,-781 -470,317 -1042,-460 -2417,-280 191,-1563 -1282,-1856 135,-377 -1410,-692 631,-215 -111,-397 956,-8 346,-1552 -1372,-383 1478,-1072 571,187 -121,-501 -1035,-581 -10,-12 94,-655 987,-716 -435,-627 -595,-138 -571,336 -312,-716 -295,211 -1108,-1058 -1314,-527 -9609,-970 -2400,-1461 -2789,223 -2224,1579 -1166,-58 -179,-564 -581,8 -987,1321 -1442,205 -387,-401 569,-685 -886,-525 -1108,818 -2286,-520 -948,1291 -4669,254 -2432,-471 1638,-6646 10,2 z"
     class="fil3 str4"
     id="CAMPINA GRANDE"
     inkscape:label="#CAMPINA GRANDE" /><path
     style="fill:none;stroke:#131516;stroke-width:76;stroke-linecap:round;stroke-linejoin:round"
     inkscape:connector-curvature="0"
     d="m 348372,174328 1662,-4182 4067,-10326 -2267,-535 -2400,970 4505,-9014 464,-3786 158,-776 2953,-1217 184,-179 893,-1687 4289,-1323 1660,-1120 -315,-842 -1081,-798 -423,-2306 1144,170 6370,-1374 2552,-160 678,-629 91,-525 278,-515 2512,-1145 -724,-1176 351,-757 -834,-728 -312,-917 2581,474 4287,789 1074,-363 2206,-1553 825,-1553 2613,225 1694,-1311 0,58 4828,7062 673,210 476,341 -213,818 1080,203 -230,752 578,-292 481,365 746,-706 856,21 423,-423 -2022,3619 -636,1079 -1515,540 -769,2042 -133,532 -378,791 -1338,808 -33,-10 -3847,1616 973,3341 -2725,7 -503,402 -1546,-351 -1362,1128 -437,-359 -1587,908 3553,2373 503,-796 3076,-1028 415,-818 1425,1406 1648,-1130 2528,2942 912,1091 1222,1464 271,1974 1831,-182 2250,4657 -235,620 -1395,1052 694,987 -2928,2165 -113,83 -920,-262 -880,617 -1202,-496 232,936 -65,818 -978,-51 -155,-7 -508,-26 -435,48 413,1381 -275,588 -1300,278 -704,-176 -730,849 -518,39 -131,9 -2915,1311 -772,1135 -655,278 -1449,-363 -789,-1521 -1120,-354 -3053,-960 -2627,1215 -467,3396 140,1147 68,237 -3919,-619 -1268,-1350 12,-644 697,-469 -448,-668 731,-1732 -503,-169 -344,-731 -619,322 -1239,-649 -1727,1319 -680,-334 -532,752 -1086,-404 -1384,-150 -716,315 -842,-244 -1227,459 -2119,644 -590,672 -1203,-631 -145,844 -774,46 101,682 -328,322 -528,-26 -675,-987 -905,466 -479,-235 -883,431 -225,-280 -179,-743 -1154,1064 -324,-757 -1163,743 -758,-532 -12,14 z"
     class="fil3 str4"
     id="ITABAIANA" /><path
     style="fill:none;stroke:#131516;stroke-width:76;stroke-linecap:round;stroke-linejoin:round"
     inkscape:connector-curvature="0"
     d="m 381944,150666 1587,-908 438,359 1362,-1128 1546,351 503,-402 2724,-7 -973,-3341 3847,-1616 34,10 1338,-808 377,-791 134,-533 769,-2041 1514,-540 636,-1079 2023,-3619 -424,423 -856,-22 -745,707 -482,-366 -578,293 230,-752 -1079,-203 213,-818 -476,-341 -673,-211 -4829,-7062 0,-57 17,-992 523,-177 19,-1609 692,-1009 4490,-1144 728,-263 4318,-1779 1694,-1529 656,-278 1932,148 1837,-758 317,-522 1342,-194 2543,1546 573,-464 22,234 2623,-1364 638,237 1832,-194 -520,443 -274,2010 -709,1118 859,1152 390,2572 798,307 -3704,2465 11249,5385 1549,4408 -283,760 927,133 -468,825 114,800 -2753,9402 -1543,-71 -1304,410 -1885,-248 -1780,574 -1123,1807 -264,-3844 -1326,-401 -832,1819 -1374,3796 -46,938 -653,1500 -484,1050 -1103,285 -162,1401 -370,789 1338,2189 341,1505 1163,2 2202,2231 -624,600 321,1643 -1899,-460 -1076,847 -1099,208 -970,-1118 -58,-17 -2987,-907 -1827,-542 -4009,1461 -694,-987 1396,-1052 235,-619 -2250,-4658 -1832,182 -270,-1974 -1223,-1464 -911,-1091 -2529,-2942 -1647,1130 -1425,-1405 -416,817 -3075,1028 -503,796 -3554,-2373 0,-2 z"
     class="fil3 str4"
     id="SAPE" /><path
     style="fill:none;stroke:#131516;stroke-width:76;stroke-linecap:round;stroke-linejoin:round"
     inkscape:connector-curvature="0"
     d="m 185344,103258 4839,80 4236,-2973 2538,-3530 1006,106 4919,-1449 1761,-520 1998,-1030 774,-605 3530,-2756 1352,-46 1357,1401 642,2071 -165,1877 406,1285 554,518 1311,121 -708,897 215,791 2185,-1969 3002,-1706 126,-72 3839,-1343 4299,-1456 6864,6169 360,5692 4326,-259 -1631,4749 -1367,2187 -285,1672 -717,2182 73,276 2395,3406 2814,1648 590,-261 184,-267 2325,-5322 254,-290 3450,128 176,51 -525,660 -196,2966 -600,886 -505,254 -1585,-288 -1108,808 -617,1033 731,1689 955,902 -1834,-242 -2469,-385 -552,1689 -1275,672 -73,845 -1238,1098 406,1732 -104,2342 -19,37 -2971,3556 -3486,4175 -2567,-575 -1222,145 -624,447 -934,-147 -2364,1113 -1611,92 -1132,-898 -1594,356 -1270,-199 -29,-372 849,-3535 -985,-893 930,-478 145,-1967 677,-777 -2277,-3696 -720,-230 -518,350 -1198,-9 -1795,1021 -1952,481 -443,-46 -859,-1035 -5956,-1571 375,-1446 -1314,-499 -520,-694 -1613,1072 -1249,36 -1833,-1234 -1271,-251 -374,-859 -506,7 -668,-53 -1304,-1195 -2250,-990 -145,-979 -733,-949 842,-2230 -1115,-915 -1123,-116 1384,-953 252,-885 -1287,-97 -862,-1249 -1570,15 -341,-4643 -452,-1623 -1636,-2741 0,12 z"
     class="fil3 str4"
     id="SERIDO OCIDENTAL"
     inkscape:label="#SERIDO OCIDENTAL" /><path
     style="fill:none;stroke:#131516;stroke-width:76;stroke-linecap:round;stroke-linejoin:round"
     inkscape:connector-curvature="0"
     d="m 447014,124296 -157,-19 -56,-51 -43,-160 -291,-745 -161,-228 -138,-1006 -73,-414 5,-452 201,-685 184,-72 290,60 0,75 -150,78 -8,19 741,123 808,-239 68,-12 41,31 43,428 -254,1546 -268,690 -160,264 -244,334 -201,251 -65,65 -42,68 -70,53 0,-2 z m -33276,1826 3704,-2465 -799,-307 -389,-2572 -859,-1151 709,-1118 273,-2010 520,-443 2881,-387 608,140 1173,150 1604,-525 1822,-38 2400,-1709 5319,-1226 1503,-689 1306,-165 1507,-881 1297,-99 1125,-847 1181,-1279 1601,-768 2485,2882 1265,704 1664,278 -1062,1854 -300,1086 -113,1081 619,1732 1171,1323 -605,951 -1386,678 -225,668 356,2530 890,2059 493,43 717,-1773 1485,-1396 -39,-2144 -696,-1400 1279,7 486,4449 -483,2630 -1176,1301 -312,1447 590,1386 869,552 -395,2751 1292,1381 -2,2192 1349,1584 1404,175 404,849 -126,4545 -905,1629 -283,3254 131,2489 605,1899 -215,1609 316,871 -404,1693 847,1292 -668,3097 312,1019 -566,1823 -471,-829 -269,85 -138,-1034 -290,90 -44,-428 -510,72 254,-1117 -499,-555 -2649,-643 -880,406 -578,-643 -264,172 -639,-508 -2944,-2439 -644,-78 -2356,-1475 295,-1457 -363,-928 -677,-860 -1456,44 181,-1330 363,-971 -1011,-394 -552,2722 -1081,871 -1133,106 -570,-910 -1875,-677 -3571,370 -2228,806 -1311,-1280 -1302,-4171 2753,-9401 -114,-801 467,-825 -926,-133 283,-759 -1549,-4408 -11249,-5386 -7,5 z"
     class="fil3 str4"
     id="JOAO PESSOA"
     inkscape:label="#JOAO PESSOA" /></svg>