<?xml version="1.0" encoding="UTF-8" standalone="no"?>
<svg
   xmlns:dc="http://purl.org/dc/elements/1.1/"
   xmlns:cc="http://creativecommons.org/ns#"
   xmlns:rdf="http://www.w3.org/1999/02/22-rdf-syntax-ns#"
   xmlns:svg="http://www.w3.org/2000/svg"
   xmlns="http://www.w3.org/2000/svg"
   xmlns:sodipodi="http://sodipodi.sourceforge.net/DTD/sodipodi-0.dtd"
   xmlns:inkscape="http://www.inkscape.org/namespaces/inkscape"
   xml:space="preserve"
   width="474mm"
   height="279.4mm"
   style="shape-rendering:geometricPrecision; text-rendering:geometricPrecision; image-rendering:optimizeQuality; fill-rule:evenodd"
   viewBox="0 0 474000 279400"
   id="svg3336"
   version="1.1"
   inkscape:version="0.91 r13725"
   sodipodi:docname="paraibamesorregioes.svg"><metadata
     id="metadata3727"><rdf:RDF><cc:Work
         rdf:about=""><dc:format>image/svg+xml</dc:format><dc:type
           rdf:resource="http://purl.org/dc/dcmitype/StillImage" /><dc:title></dc:title></cc:Work></rdf:RDF></metadata><sodipodi:namedview
     pagecolor="#ffffff"
     bordercolor="#666666"
     borderopacity="1"
     objecttolerance="10"
     gridtolerance="10"
     guidetolerance="10"
     inkscape:pageopacity="0"
     inkscape:pageshadow="2"
     inkscape:window-width="1366"
     inkscape:window-height="716"
     id="namedview3725"
     showgrid="false"
     inkscape:zoom="0.52931552"
     inkscape:cx="908.72076"
     inkscape:cy="494.99999"
     inkscape:window-x="-8"
     inkscape:window-y="-8"
     inkscape:window-maximized="1"
     inkscape:current-layer="svg3336" /><defs
     id="defs3338"><style
       type="text/css"
       id="style3340"><![CDATA[
.str2 {stroke:#72706F;stroke-width:76;stroke-linecap:round;stroke-linejoin:round}
.str5 {stroke:#C2C1C1;stroke-width:76}
.str4 {stroke:#131516;stroke-width:76;stroke-linecap:round;stroke-linejoin:round}
.str6 {stroke:#D82B40;stroke-width:76}
.str1 {stroke:#1F1A17;stroke-width:353}
.str3 {stroke:#72706F;stroke-width:353;stroke-linecap:round;stroke-linejoin:round}
.str0 {stroke:#131516;stroke-width:353;stroke-linecap:round;stroke-linejoin:round}
.str8 {stroke:#1F1A17;stroke-width:706}
.str7 {stroke:#D82B40;stroke-width:1058}
.fil3 {fill:none}
.fil4 {fill:#FFFFFF}
.fil2 {fill:#9DBDDD}
.fil0 {fill:#EEDDB3}
.fil1 {fill:#F6EAD9}
.fil6 {fill:#D82B40}
.fil5 {fill:#ECECEB}
]]></style></defs><g
     id="Destaque" /><path
     style="fill:none;stroke:#131516;stroke-width:353;stroke-linecap:round;stroke-linejoin:round"
     inkscape:connector-curvature="0"
     d="m 16755,121903 445,-423 999,-162 992,-1471 70,-104 -641,-835 121,-675 -1140,-264 -868,-1103 5,-14 14,-44 1077,-938 -789,-1387 402,-140 -46,-960 -5,-119 -660,-503 984,-806 2862,-750 -218,-774 397,-283 1614,-116 -17,-1031 1744,-200 1282,-1012 721,-254 520,-184 -196,-825 542,-863 215,-344 -802,-1038 111,-203 1688,-1011 624,-963 704,-665 1517,-387 -94,-697 -619,-779 89,-104 1282,-44 1329,448 358,-1188 -1638,-602 -1239,-1512 -1205,-411 -91,-250 40,-116 187,-520 -832,-1265 172,-1159 -983,-677 -861,-1873 10,-17 283,-484 -344,-588 958,-1877 428,-152 -196,-494 1145,-126 522,-1011 27,-1079 -1116,-1314 201,-1301 675,-319 271,-1280 1928,-1256 -416,-1614 -1093,-962 1076,-1319 51,-745 767,-491 -104,-554 2151,-2581 -380,307 -617,-457 421,-1648 1906,-1405 2705,-3332 66,-1688 1478,-796 162,-1132 72,-506 3278,-2828 728,181 -1154,-1592 -198,-94 -1379,941 -970,-421 -2397,617 -489,-97 -370,-205 -51,-472 -861,-136 -525,148 -874,-798 784,-337 274,-916 464,-247 1667,-121 -295,-1217 929,-259 218,-547 217,-84 332,-129 1686,-96 -528,-337 533,-672 1212,-237 1558,317 251,70 1343,1163 1239,-1289 1021,-515 1025,-714 1894,-377 -1944,1707 -1529,2149 -20,191 772,1558 -346,1943 2250,-259 1587,-385 87,56 293,1093 2414,1186 2199,-414 550,-43 984,640 520,436 353,395 254,960 750,585 160,2028 1079,-235 319,917 1089,-547 520,-27 365,175 412,196 921,-100 155,87 1244,1515 515,1381 131,213 2022,126 586,1786 3546,-2468 619,275 1288,-597 1124,339 196,34 2940,505 912,1108 530,95 2896,-7 1463,-840 1362,2973 1708,387 104,24 380,-58 1945,-1343 286,-1751 1364,-847 1345,-2419 228,-191 749,-302 298,-697 610,-63 249,-1118 631,-106 51,41 148,1120 844,883 -484,1437 796,118 721,68 557,-691 1001,-20 -798,-2453 1294,-1522 -680,-198 78,-327 3812,-79 1147,-876 73,-1500 1391,-762 22,1086 1291,1599 1195,-29 506,-92 929,-1059 31,-22 1960,-1324 1241,51 443,-346 218,-585 -467,-491 31,-2516 3128,1156 615,-944 1401,-362 -286,-956 1086,-1318 -984,-1024 1042,-1246 1225,-428 875,-416 5,-48 -1035,-842 1499,-1585 1752,-290 2434,116 1626,77 -34,-341 -13,-118 -1470,-1491 104,-817 1098,-1272 -1754,-915 1626,-777 -41,-128 -288,-315 -1125,-348 225,-351 989,-1045 1113,-462 -90,-1599 591,-702 3653,-1620 767,-204 31,-10 1169,1039 2221,280 3447,27 907,-1053 2446,-370 1795,-271 1658,-1255 1240,-416 443,-375 987,1001 2277,155 401,-1442 1633,-34 2054,-43 -55,-854 1545,4 702,799 2649,-735 557,-2746 905,-867 2174,-353 1999,416 1562,-374 1159,-2446 477,-225 796,-259 1887,409 2054,-2095 2927,-1070 1135,-832 183,-7 1135,864 1592,-252 980,-1031 619,-1560 317,-431 1110,-145 320,15 1207,179 931,1475 1679,-367 412,2 1035,1014 2243,-3 -182,762 552,3097 -230,1737 598,1275 -869,3501 961,1292 1040,-163 -965,1975 -941,1071 -2064,329 -155,1682 -1021,861 -2710,629 -568,266 -493,230 -1505,1108 -2095,2782 -460,3273 -1335,92 -2250,-440 -1270,230 -1033,2516 -552,491 -131,63 -2694,1296 -639,465 -1396,2221 -25,2748 -1212,1147 -29,1137 -70,106 -735,1118 -140,1693 1190,1048 537,1113 -44,79 -972,1759 -656,6762 -1972,1851 -215,104 -1795,118 -1301,-14 -2045,92 -389,17 -254,140 -1529,1679 281,1035 636,511 -583,3273 -29,1220 483,319 163,1079 -295,2644 1214,1989 -992,1417 464,828 -1511,3270 8522,-1415 1062,291 6058,157 3131,-1353 3370,545 -712,2107 1130,1231 1764,874 -542,2968 -474,919 1737,1423 -356,772 571,1224 29,1386 2262,1495 1636,2741 452,1623 341,4643 1570,-14 861,1248 1288,97 -252,885 -1384,953 1122,116 1116,915 -842,2230 733,949 145,979 2250,990 1304,1195 668,53 505,-7 375,859 1271,251 1833,1234 1248,-36 1614,-1072 521,694 1313,499 -375,1447 5956,1570 859,1035 443,46 1952,-481 1795,-1021 1198,10 517,-351 721,229 2277,3697 -678,777 -145,1966 -929,479 985,893 -849,3535 -1449,186 -1128,-315 -1050,204 -1371,1069 -1759,2165 -1026,-483 -1897,1620 -1705,-58 2179,6702 313,3602 -1691,384 -2816,10096 -620,206 -1028,181 -559,-1522 -576,-363 -1533,-887 -1612,-329 -1620,-329 -721,-765 -808,290 -1062,-1277 -1336,346 -912,-179 -351,-1824 -929,-1152 -2390,-1681 -1710,-332 -2069,-1780 -1771,-94 -1289,-12 -1686,101 -1338,1433 -2366,118 -479,12 -1945,46 -1585,2122 -1151,1449 764,1635 -3984,2173 -2470,154 -811,399 -1265,-873 -542,298 -29,29 -1045,324 -2698,-179 -2518,566 -825,332 -92,285 481,1393 656,1501 -1096,921 -958,1730 -549,150 -547,776 153,612 -675,784 -762,886 -10,34 -60,1833 -574,857 -1984,680 -2189,1042 -87,53 -2069,1268 -2112,815 -181,1169 -927,820 -79,22 -1082,687 -1570,-290 -576,53 -1064,-796 -1887,1374 -607,1406 -2683,242 -395,984 254,1224 -1459,1239 -849,-237 -684,1926 -716,34 -467,1299 -1120,1122 -51,341 -184,1268 1287,261 854,849 -22,1762 -1466,450 -290,629 -1396,-1365 -143,-140 66,-844 -884,-228 -26,-1311 -673,-864 -338,-38 -789,154 -1682,1766 -3965,344 -1601,721 -252,312 -2184,2995 -1846,789 -654,796 448,880 762,540 -222,297 -2064,-457 -873,474 -644,1774 -1795,1228 -488,1675 -1121,1006 -72,77 -699,745 -704,504 -1309,-523 -803,687 -1154,8 -412,-105 -191,-365 -213,-861 -1613,-1343 -1844,-723 -3302,2705 -41,33 -240,417 -370,1359 -36,1793 1018,1408 -157,430 -1016,932 -4466,-1033 -261,-242 -450,-661 186,-609 -960,-394 -32,-893 -1151,-1157 -888,-321 -1558,-266 -1164,1098 -307,-145 -1846,1383 -1328,690 -1357,1219 -395,177 -1461,648 -343,528 -2035,36 -869,-339 -1248,656 -1159,-411 -1207,-1793 -532,-2814 878,-1149 -731,-1018 158,-608 -1863,158 1604,-2139 -898,-631 -38,-75 -574,-1135 421,-1338 -573,-87 116,-702 -503,-1231 -651,-467 -406,269 -757,-305 -821,176 -1410,-1961 -586,1166 -706,382 -191,789 -1246,999 -2388,767 341,617 -970,1149 -305,-7 -1676,-42 -741,-1057 -2499,-257 -767,1409 -2252,319 -1246,547 -94,1241 -2204,-80 -1444,636 -1500,-665 -2088,772 -1084,-508 -300,314 -350,-849 -886,914 -835,-62 -454,-1355 -1084,-283 -44,-1491 -900,-1282 -1011,-660 -123,-1498 -1640,-907 -83,-975 -1026,-63 75,-939 -1418,-1214 -698,324 -313,-186 -1538,-2615 -1019,-247 -1038,-1183 -1067,-14 -353,-1384 581,-112 220,-2392 924,-622 1827,24 689,-709 498,-510 2198,-506 -419,-542 612,-667 -322,-922 416,-719 136,-1306 -349,-614 903,-516 -211,-672 264,-1048 1572,-1831 -450,-1132 -648,-1106 -493,-179 137,-365 4583,-266 -78,-412 -193,-1023 1071,-655 116,-518 1072,96 87,-2034 -1219,-167 2,-32 12,-152 559,-1321 748,-329 757,-2296 73,-87 1642,-2017 987,-1948 281,-641 36,-82 27,-801 -138,-1244 1130,-1018 607,-1370 -885,-1695 53,-1377 -1096,-259 -259,-1292 273,-919 -631,-450 -2799,990 -1326,-204 -610,-1296 -527,232 -1096,-738 -360,-1055 -487,-1425 359,-1171 -409,-469 -281,-133 -1154,240 -779,-1082 -196,-12 -1792,94 -2880,605 531,-1563 563,-593 101,-108 10,-75 -914,-835 1091,-619 -225,-2637 370,-607 1304,-1774 566,-1746 68,-209 -375,-757 -830,-590 -455,-1062 -639,-377 792,-1428 24,-709 -2199,-822 -182,-1222 -2431,-1217 -385,-135 -1495,-530 -2247,-1621 -847,126 -697,-503 3,26 z"
     class="fil3 str0"
     id="SERTAO PARAIBANO"
     inkscape:label="#SERTAO PARAIBANO" /><path
     style="fill:none;stroke:#131516;stroke-width:353;stroke-linecap:round;stroke-linejoin:round"
     inkscape:connector-curvature="0"
     d="m 267775,143502 -194,-3401 484,-1587 1503,-1302 -215,-1185 -1725,-9559 -95,-900 1343,-2944 -44,-685 9111,-1197 4679,-3017 1870,-939 929,-936 627,68 1234,-22 1108,-839 815,-2877 3322,-6587 16,-32 257,-3972 890,-13758 878,-4706 968,-5182 1009,-3907 361,-11660 299,-2161 985,-111 4233,-254 3119,-574 1282,305 484,-324 1778,409 900,-813 518,-181 205,-73 1082,-377 740,-1174 806,576 -116,491 721,24 605,-534 1156,2419 1601,1328 2582,1188 544,1110 -501,842 610,194 220,718 3053,864 1367,-501 2320,953 10038,-600 8058,-481 728,-44 24,-2 4996,-1253 1081,109 421,-83 424,-128 825,-518 2293,-1966 1171,418 682,-133 240,-252 189,-195 316,-54 2379,927 1819,341 372,566 1841,-220 883,1214 51,610 1137,953 12,10 82,133 1801,39 -68,474 636,111 213,-39 445,-142 133,-83 566,-938 653,121 310,-336 477,343 716,-411 203,-353 832,358 596,-278 1204,108 619,603 419,-351 866,655 769,90 443,-406 980,-51 443,-629 51,5 1434,1081 443,-820 116,917 1943,101 1790,228 576,72 401,138 2098,1135 1686,1004 -3549,5593 193,1161 586,2811 1500,489 406,-530 1159,46 842,-283 704,223 755,-968 634,290 471,-348 -36,844 506,649 -228,2054 -1321,3309 777,133 1563,2068 -75,4072 -566,204 -392,-854 -644,152 -1391,2376 143,1911 -453,735 -11,15 -2444,694 1118,186 686,400 608,1499 1096,571 1696,5 275,346 170,649 532,-8 -779,1113 -486,2860 2240,619 772,2325 -2023,1016 298,1207 1151,1353 -70,996 487,1179 -513,1200 1386,943 711,2223 1067,-48 390,549 1287,823 -1694,1528 -4318,1779 -729,263 -4490,1145 -691,1008 -20,1609 -523,177 -16,992 0,58 4828,7061 673,211 477,341 -213,818 1079,203 -230,752 578,-292 481,365 746,-706 856,22 423,-424 -2022,3619 -636,1079 -1515,540 -769,2041 -133,533 -378,791 -1337,808 -34,-10 -3847,1616 973,3341 -2724,8 -504,401 -1546,-351 -1361,1128 -438,-358 -1587,907 3554,2373 503,-796 3075,-1028 415,-818 1426,1406 1647,-1130 2528,2942 912,1091 1222,1464 271,1974 1831,-182 2250,4657 -235,619 -1395,1053 694,987 -2927,2165 -114,83 -919,-262 -881,617 -1202,-496 232,937 -65,817 -978,-51 -155,-7 -508,-26 -435,48 414,1381 -276,588 -1299,278 -704,-176 -731,849 -518,39 -130,9 -2915,1311 -772,1135 -656,278 -1449,-362 -789,-1522 -1120,-353 -3053,-961 -2627,1215 -467,3396 140,1147 68,237 409,1425 -799,556 -215,1220 -825,663 -121,212 -29,1544 -791,2121 -1050,1135 36,803 327,160 385,97 1601,-506 -2,42 -566,1170 5,24 -158,291 424,825 -849,125 -649,1556 1829,2378 -1309,286 -55,12 -591,975 -3086,554 -1266,-532 -1843,-465 -954,389 -1410,20 -445,372 -114,141 -162,203 -249,346 -1043,1449 -895,820 -1797,1183 -474,204 -1941,309 -641,-14 -1403,-29 -181,-639 -521,-232 -895,605 -447,832 -646,321 -2008,196 -743,460 -343,781 -615,310 -1125,107 -2042,1509 -1031,232 -2849,782 -499,138 -899,317 -1442,-509 -2282,441 -1081,-167 -1057,726 -121,1052 -114,1004 -2269,1926 -3136,-861 -1153,614 -1728,-303 -1205,240 -1255,1514 -1258,-295 -581,1409 -573,-35 -2020,-304 -1328,-1500 -179,-63 643,-527 -68,-562 975,-1100 -55,-460 602,-709 532,41 46,-856 327,372 249,-259 629,479 406,-104 370,-2080 850,-658 -670,-68 -126,-636 764,31 -125,-924 592,-602 225,-1333 339,121 155,-1326 -721,-15 -97,-280 1067,-1716 72,-853 1324,-1774 772,-321 612,1183 1425,924 290,1386 636,184 3314,-1486 678,-706 2622,7 -14,-1268 -303,-324 457,-658 -307,-619 -1265,-3038 736,-583 450,-1489 375,-181 1524,-1350 2636,-348 95,-298 -298,-51 119,-818 -2126,-708 -1171,48 -714,-759 -772,-564 -943,29 -467,-544 121,-1125 1001,-1179 -58,-783 10,-30 -1870,-212 -1036,631 -234,-883 -1358,-205 -672,849 -1863,-905 -1492,-1372 -289,259 -1100,-781 -470,316 -1042,-459 -2417,-281 191,-1563 -1282,-1855 135,-377 -1410,-693 631,-215 -111,-396 956,-8 346,-1553 -1372,-382 1478,-1072 571,186 -121,-500 -1035,-581 -10,-12 94,-656 987,-716 -435,-626 -595,-138 -571,336 -312,-716 -295,210 -1108,-1057 -1314,-527 -9609,-970 -2400,-1462 -2789,223 -2224,1579 -1166,-57 -179,-564 -581,7 -987,1321 -1442,206 -387,-402 569,-685 -886,-524 -1108,817 -2286,-520 -948,1292 -4669,254 -2432,-472 1638,-6646 -1417,-2685 1940,-10398 -8809,3254 -1374,-2076 -7468,-1044 12,4 z"
     class="fil3 str0"
     id="AGRESTE PARAIBANO"
     inkscape:label="#AGRESTE PARAIBANO" /><path
     style="fill:none;stroke:#131516;stroke-width:353;stroke-linecap:round;stroke-linejoin:round"
     inkscape:connector-curvature="0"
     d="m 172696,227041 804,-288 2683,-321 339,-755 630,-191 102,-784 -367,-595 198,-857 -188,-128 -1174,-56 -9,-79 248,-156 1297,-234 479,-416 1790,-32 4708,-3263 -29,-1391 -597,-878 353,-756 2763,-502 -653,-2291 -1372,181 -351,-450 1485,-648 -43,-699 832,-296 615,288 2146,-854 706,-854 939,-48 803,617 556,428 -77,-556 341,29 825,-221 167,-132 803,-1367 -530,-327 -29,-426 1991,-3029 -1118,-1582 -288,-1976 -157,-375 -871,-1302 -728,-764 -256,-269 -636,-794 -431,-1407 -244,-359 -1464,-1470 -215,-1288 38,-931 138,-392 958,-1050 709,-1824 1369,-2243 1343,-1538 2429,-1964 1345,-1537 1698,-546 2105,-1413 80,-5 1976,-126 1597,-1384 2552,-602 489,-199 119,-48 1606,-801 803,750 2095,-1570 -77,-438 -211,-329 -946,-285 153,-869 -356,-585 -1478,-637 -271,-953 -1059,-987 -90,-239 1004,-383 -336,-638 -927,-235 1362,-2064 -1396,-1739 -2596,-1132 -24,-2 -317,104 2816,-10096 1691,-385 -312,-3602 -2180,-6701 1706,58 1897,-1621 1026,484 1758,-2165 1372,-1070 1050,-203 1127,315 1450,-187 848,-3534 -984,-893 929,-479 145,-1967 678,-777 -2277,-3696 -721,-230 -518,351 -1197,-10 -1795,1021 -1953,482 -442,-46 -859,-1036 -5956,-1570 375,-1447 -1314,-498 -520,-694 -1614,1072 -1248,36 -1834,-1234 -1270,-252 -375,-859 -506,8 -667,-53 -1304,-1196 -2250,-989 -145,-980 -733,-948 842,-2231 -1116,-914 -1122,-116 1384,-953 251,-886 -1287,-97 -861,-1248 -1570,14 -341,-4642 -453,-1623 -1635,-2741 4838,80 4237,-2974 2537,-3529 1007,106 4918,-1449 1761,-520 1998,-1031 775,-605 3529,-2755 1353,-46 1357,1401 641,2071 -165,1877 407,1285 554,517 1311,121 -709,898 215,791 2185,-1969 3003,-1706 125,-72 3839,-1343 4299,-1457 6864,6169 361,5693 4325,-259 -1631,4749 -1366,2187 -286,1672 -716,2182 73,275 2395,3407 2813,1647 591,-261 183,-266 2325,-5322 255,-291 3449,129 177,50 1955,571 2303,22 742,310 4612,-6834 125,-905 -740,-929 409,-1121 1062,-795 1817,147 1434,-1684 2054,-798 554,-721 622,-3904 -343,-2359 -874,-683 -1086,-820 -60,-116 -458,-595 -626,-244 -114,-27 -1166,-266 -1495,-2250 33,-372 1106,-1348 1144,-4580 1733,-4572 -51,-196 -307,-1171 1183,-578 643,116 653,665 3145,1423 1428,2202 1231,-1123 1224,559 261,-375 -583,-2850 -246,-4333 -637,-745 -1025,-320 -1171,-237 -46,-9 -975,-893 -469,-2330 -1962,-665 -2071,-1224 -729,-136 -251,-2411 -215,-2054 99,-1488 481,-1333 1906,-3845 281,-1543 562,-3077 4248,324 3411,126 3938,-7522 3520,1764 2059,-835 53,-22 3948,-2281 1348,1331 1706,1683 94,946 51,3126 -117,346 -1678,2414 -271,392 -121,482 232,1357 80,249 1064,375 1694,399 2138,446 153,3628 3375,-379 -300,2160 -361,11661 -1009,3907 -967,5182 -879,4705 -890,13759 -256,3972 -17,31 -3322,6588 -815,2876 -1108,840 -1234,22 -627,-68 -928,936 -1871,939 -4679,3017 -9110,1197 43,685 -1343,2944 95,900 1725,9558 215,1186 -1502,1301 -484,1587 194,3402 7468,1045 1374,2076 8808,-3254 -1940,10398 1418,2685 -1638,6646 2431,471 4669,-254 949,-1291 2286,520 1108,-818 886,525 -569,685 387,401 1442,-205 987,-1321 581,-8 179,564 1165,58 2224,-1579 2789,-223 2400,1461 9609,970 1314,527 1108,1058 295,-211 312,716 571,-336 595,138 436,627 -987,716 -95,655 10,12 1035,581 121,501 -570,-187 -1478,1072 1371,383 -346,1552 -955,8 111,397 -632,215 1411,692 -136,377 1282,1856 -190,1563 2416,280 1043,460 469,-317 1101,781 288,-259 1492,1372 1863,905 673,-849 1357,206 235,883 1035,-632 1870,213 -9,29 58,784 -1002,1178 -121,1125 467,544 944,-29 771,564 714,760 1171,-49 2126,709 -118,818 297,51 -94,297 -2637,348 -1524,1350 -375,182 -450,1488 -735,583 1265,3038 307,620 -457,658 302,324 15,1267 -2623,-7 -677,707 -3314,1485 -637,-184 -290,-1386 -1425,-924 -612,-1183 -772,322 -1323,1773 -73,854 -1067,1715 97,281 721,15 -155,1325 -338,-121 -225,1333 -593,602 126,925 -765,-32 126,636 670,68 -849,658 -370,2081 -406,104 -629,-479 -250,259 -327,-373 -45,856 -533,-40 -602,708 56,460 -975,1101 67,561 -643,527 -881,-263 -1171,846 -1507,-2032 -348,-218 -3503,-157 -1626,697 -1052,-169 -1822,-295 -4284,249 -2059,667 -610,-2150 -1122,-687 -3675,2915 -264,370 -208,851 1384,891 179,885 -1142,1055 -890,385 -542,94 -837,-128 -2190,-1754 -774,-443 -726,-256 -5322,-73 -975,-147 -1309,694 -2513,-440 -1210,607 -1831,186 -489,941 -135,1418 72,3290 -1246,1236 842,191 288,627 -302,752 -218,414 -68,126 -1139,1185 167,726 -73,56 -2117,9 -1768,1036 -878,-1031 -1242,542 -4069,-2052 -1730,-326 -1951,571 -313,223 -612,1013 612,2294 -815,1183 689,943 -338,484 -1483,-271 -2318,-997 -1253,2354 -51,1266 -520,594 0,3054 0,4584 -2308,1302 -738,675 -140,271 -97,186 22,242 781,142 346,1229 1130,85 924,1041 -2,919 -1125,854 -3039,573 -2151,1294 -837,637 714,1555 -2349,75 -1592,-588 -326,605 1100,1198 -728,111 -174,457 -1863,-9 -189,67 -832,298 -370,1737 -891,529 -1543,-614 -1447,-14 -237,-3 -1231,295 -215,128 -937,1203 -5419,1887 -1930,1456 -1841,571 -1357,1457 -1621,1739 -2420,595 -304,426 36,1328 -506,571 -118,133 -479,194 -2250,-208 -1466,607 -3247,-1464 -2272,-2513 -224,-254 -266,-317 -4689,-685 -854,-1647 -2964,-3465 -251,-1120 203,-1821 87,-775 -34,-101 -392,-80 -1623,392 -2098,-753 -372,-510 22,-779 1367,-953 -838,-1232 593,-1255 999,-274 34,-143 34,-152 -472,-2445 453,-1336 -1447,-2581 -135,-1466 1066,-1776 -128,-1253 -249,-1582 -781,-1113 -315,-235 -1490,-29 -20,-51 -72,5 -424,-726 -524,22 -390,-784 -564,-12 78,-2453 -1621,-929 -1263,716 -208,300 126,1239 -1011,-7 -218,-351 -726,430 -1060,-435 -1823,-128 -1527,416 -2001,-777 -856,581 -1503,-237 -2511,1292 -191,-579 -1582,41 0,-253 902,-2013 -193,-666 4,-7 z"
     class="fil3 str0"
     id="BORBOREMA"
     inkscape:label="#BORBOREMA" /><path
     style="fill:none;stroke:#131516;stroke-width:353;stroke-linecap:round;stroke-linejoin:round"
     inkscape:connector-curvature="0"
     d="m 381944,150666 1587,-908 438,359 1362,-1128 1546,351 503,-402 2724,-7 -973,-3341 3847,-1616 34,10 1338,-808 377,-791 134,-533 769,-2041 1514,-540 636,-1079 2023,-3619 -424,423 -856,-22 -745,707 -482,-366 -578,293 230,-752 -1079,-203 213,-818 -476,-341 -673,-211 -4829,-7062 0,-57 17,-992 523,-177 19,-1609 692,-1009 4490,-1144 728,-263 4318,-1779 1694,-1529 -1287,-822 -390,-549 -1066,48 -712,-2223 -1386,-944 513,-1200 -486,-1178 70,-997 -1152,-1352 -297,-1207 2022,-1016 -772,-2325 -2240,-620 487,-2859 779,-1113 -533,7 -169,-648 -276,-346 -1696,-5 -1096,-571 -607,-1499 -687,-400 -1118,-186 2444,-694 12,-15 452,-736 -142,-1911 1390,-2375 644,-153 392,855 566,-204 75,-4072 -1563,-2068 -776,-133 1321,-3310 227,-2053 -506,-649 37,-844 -472,348 -634,-290 -755,968 -704,-223 -842,283 -1158,-46 -407,530 -1500,-489 -585,-2811 -194,-1161 3549,-5593 2562,2927 1157,631 6193,-51 2351,-1086 2299,-246 854,-1089 9,-32 170,-568 522,237 1103,2538 963,912 605,21 2610,910 1411,-735 1292,108 1442,-1860 1016,-655 1204,-2724 975,79 223,-626 675,-274 3128,2974 1038,346 2289,-1176 928,-1277 1075,-271 846,336 2098,-511 1364,-1231 954,-542 159,315 230,454 220,12201 356,4083 902,3143 757,1355 1766,788 -391,1154 65,1307 239,1139 -302,1198 607,895 -1093,1490 651,372 -49,1312 -401,230 1635,-216 392,-14 329,2479 246,3179 1205,3852 -4,1130 2484,2881 1265,704 1665,278 -1062,1853 -300,1087 -114,1081 619,1732 1171,1324 -605,950 -1386,677 -225,668 356,2531 890,2059 494,43 716,-1773 1485,-1396 -38,-2143 -697,-1401 1279,7 487,4449 -484,2630 -1176,1301 -312,1447 590,1386 869,552 -394,2750 1292,1382 -3,2192 1350,1584 1403,175 404,849 -126,4545 -905,1629 -282,3253 130,2490 605,1899 -215,1609 316,871 -403,1693 846,1292 -667,3097 312,1018 -567,1824 -292,1919 -716,6452 607,1057 254,334 -815,680 -428,931 568,2778 -1164,1833 -643,2115 -849,188 -520,-568 -196,-63 -1469,-482 -477,-154 -1403,1229 -1933,-1365 -769,980 -610,0 -70,-929 -977,94 -65,528 -32,9 -106,37 -322,-66 -1031,-1103 -907,-450 -1977,1004 -1120,124 -953,-1950 -1645,-1602 -82,-718 -82,-184 -661,-1101 591,-1928 -78,-861 -2259,-1616 -2403,-2483 -2044,-883 -1948,-1567 -1052,-578 -218,-119 -288,-24 -945,796 -999,438 -40,9 -2421,-500 -690,-421 -2203,-540 -842,-288 -1899,-460 -1077,847 -1098,208 -970,-1117 -58,-17 -2988,-907 -1827,-542 -4008,1461 -695,-987 1396,-1053 235,-619 -2250,-4657 -1831,182 -271,-1975 -1222,-1463 -912,-1092 -2528,-2941 -1648,1130 -1425,-1406 -416,818 -3075,1028 -503,796 -3554,-2373 -7,12 z m 65070,-26370 -157,-19 -56,-51 -43,-160 -291,-745 -161,-228 -138,-1006 -73,-414 5,-452 201,-685 184,-72 290,60 0,75 -150,78 -8,19 741,123 808,-239 68,-12 41,31 43,428 -254,1546 -268,690 -160,264 -244,334 -201,251 -65,65 -42,68 -70,53 0,-2 z"
     class="fil3 str0"
     id="ZONA DA MATA PARAIBANA"
     inkscape:label="#ZONA DA MATA PARAIBANA" /></svg>